<!-- Credit: "Villain" by JJ
     https://commons.wikimedia.org/wiki/File:Villainc.svg -->

<svg xmlns="http://www.w3.org/2000/svg" width="253" height="346"><rect width="253" height="346" fill="#ad1210"/><path d="M253.07 162.915c0 67.9-55.044 122.944-122.944 122.944s-122.944-55.044-122.944-122.944 55.044-122.944 122.944-122.944 122.944 55.044 122.944 122.944z" color="#000" fill="#ce302f" fill-rule="evenodd" overflow="visible"/><path d="M226.709 345.564v-22.916c0-4.384 3.41-1.948 5.358-5.845 1.948-3.897 12.177-57.476-4.871-84.752-17.048-27.277-36.531-31.173-59.911-24.354-23.38 6.819-46.76 67.704-46.76 67.704s-30.686 11.203-37.018 20.457c-6.332 9.255-15.038 24.986-6.962 33.062 7.609 7.609 10.431 2.007 10.431 2.007 1.55-.172 2.145 1.09 3.522 1.09 2.095 0 2.263-.947 4.699-.947 2.435 0 .974 14.493.974 14.493" fill-rule="evenodd" stroke="#000"/><path d="M156.023 147.483s4.414-11.787 14.64-11.787c10.225 0 12.855 14.65 12.916 22.146.053 6.996-3.229 19.294-17.222 19.294" fill="#f6f2e0" fill-rule="evenodd" stroke="#000" stroke-width="3"/><path d="M96.325 213.448l-.666 11.32 41.286 17.313s17.399-10.053 22.64-54.604c1.332-11.32-30.607-20.446-30.607-17.117 0 20.686-12.676 41.755-32.653 43.087z" fill="#fff" fill-rule="evenodd"/><path d="M99.084 148.613l-12.497 5.827-1.173 30.299 9.903 9.619s.538 15.607-4.305 18.836c-4.844 3.229 25.999 4.253 31.753-17.222 5.734-21.399 9.291-26.798 17.922-25.722 3.888.485-.436-5.156 18.109 9.239 4.506 27.922-17.733 62.229-21.5 62.229-6.458-1.076-43.265-18.112-43.265-18.112-2.622 3.933-4.13 5.066-15.138 8.073-16.312 4.456-11.023 20.265-4.565 25.108 6.458 4.844 18.836 10.225 27.447 7.535 8.611-2.691 45.745-19.913 52.204-19.913 6.458 0 11.302-.183 13.993-4.844 1.605-2.78-4.063-16.302-2.234-60.842.625-15.056-14.45-32.802-14.988-52.714-.408-15.102-65.12-3.767-65.12-3.767l13.455 26.371z" fill="#f4f1de" fill-rule="evenodd" stroke="#000" stroke-width="3"/><path d="M96.437 204.033c0-.689 11.28-19.489 19.398-28.079 6.724-7.113-4.332-.239-4.332-.239l-14.722 18.312-.344 10.006z" fill="#d0caa6" fill-rule="evenodd"/><path d="M135.902 132.485s11.826 3.752 8.955 14.466c-1.609 6.005-6.544 13.777-18.254 13.088-10.927-.643 11.71-4.133 9.299-27.554z" fill="#d1caa9" fill-rule="evenodd"/><path d="M88.372 127.973s58.167 3.563 60.234 2.186c2.067-1.378-.305-5.63-.305-5.63l-61.651-2.411 1.722 5.855z" fill="#d0cbad" fill-rule="evenodd"/><path d="M45.504 111.401s.556-8.324 1.799-8.738c1.542-.514 29.556 13.365 45.491 14.393-5.654-13.879-7.71-65.023 7.967-107.944 27.666 3.489 58.716 13.505 93.15 20.436 1.073.216 3.226 2.582 1.48 3.733-6.765 12.029-42.812 35.983-43.742 84.13 15.583-1.527 29.161-9.193 32.579-9.302.683-.022 1.831 1.15 1.053 2.472-5.654 11.051-5.349 13.097-5.349 13.097-.807.942-1.298 1.38-2.223 1.437-12.679.789-106.334 5.93-132.206-13.713z" fill-rule="evenodd" stroke="#000"/><path d="M88.321 179.289c17.883-24.797 28.524-17.941 28.524-5.382-11.302 5.382-36.596 43.055-36.596 43.055-10.489-6.883-15.069-14.061-15.069-32.829-.538-28.524 35.52-34.444 35.52-34.444s-3.229-10.764-1.076-13.455" fill="#f4f1de" fill-rule="evenodd" stroke="#000" stroke-width="3" stroke-linecap="round" stroke-linejoin="round"/><path d="M125.8 187.862l16.594 42.413" stroke="#000" stroke-width="3.2" stroke-linecap="round" fill="none"/><path d="M119.535 203.493s-.128 26.258 1.204 29.587" stroke="#000" stroke-width="2.5" stroke-linecap="round" fill="none"/><path d="M107.566 212.676c.285 3.991-.379 13.614-.379 13.614" stroke="#000" stroke-width="2.5" stroke-linecap="round" fill="none"/><path d="M96.702 214.809c0 3.457-2.529 10.493-2.529 10.493" stroke="#000" stroke-width="4" fill="none"/><path d="M106.666 149.308s3.264 9.705 14.324 10.258c8.304.415 19.963-8.046 18.857-17.448-1.106-9.402-5.53-12.72-14.932-11.061" fill="#fff" fill-rule="evenodd" stroke="#000" stroke-width="3.4"/><path d="M116.306 166.373s27.644-16.435 56.509 19.375c22.37 27.751 42.768 8.71 42.768-1.398 0-15.349-25.616-17.99-25.616 5.165-3.767 3.229-7.646-19.878 14.42-19.878 16.75 0 16.981 18.391 10.945 28.845-5.747 9.954-28.071 23.075-48.975-4.662-27.985-37.135-49.446-18.776-49.446-18.776l-.605-8.672z" fill="#040100" fill-rule="evenodd" stroke="#000"/><path d="M66.579 201.076s-11.8 8.522-17.044 18.028c-3.83 6.941-17.514 17.558-29.172 5.9-11.04-11.04 5.572-35.728 19.667-24.911-2.504 1.918-10.936-3.873-16.389 5.572-3.379 5.852-4.594 19.011 6.883 19.011 15.097 0 10.489-19.339 34.089-36.055" fill="#010101" fill-rule="evenodd" stroke="#000"/><path d="M132.989 140.413c-2.502.151-3.708 3.056-2.126 4.459 2.194 1.945 4.102.228 4.416-.702.77-2.277.096-3.901-2.29-3.757z" fill-rule="evenodd"/><path d="M80.967 260.092c-2.067-2.755-5.855-10.676 3.961-16.704" stroke="#000" stroke-width="3" stroke-linecap="round" fill="none"/><path d="M159.322 125.941l-2.067 18.599-3.444 1.722-4.822-20.665 10.333.344z" fill-rule="evenodd"/><path d="M63.349 129.224c-3.075-5.327 23.02-19.491 27.37-3.255 3.694 13.785 3.617 20.224 13.496 20.637 10.239.428 20.321-22.387 22.387-22.043 2.067.344 4.133 3.444.344 6.544-3.789 3.1-13.524 20.4-24.454 18.943-10.333-1.378-15.808-26.665-24.123-27.736-11.123-1.434-13.477 9.584-15.021 6.91z" fill-rule="evenodd" stroke="#000"/><path d="M84.638 155.2s-12.903-6.929-3.942-17.562c8.96-10.633 8.96-5.496 8.96-5.496 2.987 8.124 10.155 17.204 10.155 17.204l-15.173 5.854z" fill="#fff" fill-rule="evenodd" stroke="#000" stroke-width="3"/><path d="M93.36 142.775c1.017-1.475 4.779 3.823 4.062 5.018-.597.717-10.513 2.031-4.062-5.018z" fill-rule="evenodd"/><path d="M166.901 166.477s10.475.676 10.813-10.813c.338-11.489-6.758-13.178-6.758-13.178s-9.461 2.365-6.758 8.11c2.703 5.744 7.096 6.42 6.082 10.137-1.014 3.717-2.703 6.082-3.379 5.744z" fill="#d1caac" fill-rule="evenodd"/><path d="M164.415 168.012s11.055-6.955 2.363-14.017c-8.611-6.996 2.808-13.993 7.652-10.764" stroke="#000" stroke-width="3" stroke-linecap="round" fill="none"/><path d="M125.999 269.257s8.266 2.488 9.37 4.972c3.06 6.884-2.103 15.489-2.295 19.505-.191 4.016 4.398 23.903.382 24.095-4.016.191-7.84 2.486-8.223-3.251-.382-5.737-29.831.382-29.831.382l-8.605-38.476s24.286-10.861 39.201-7.228z" fill="#f5f2de" fill-rule="evenodd" stroke="#000" stroke-width="3"/><path d="M96.741 321.462s-14.916-29.831-17.593-36.142c-2.677-6.31 21.727-17.784 30.788-17.784 16.612 0 17.21-.652 17.21 7.84 0 10.904-9.212-1.263-26.772 3.442-10.595 2.839-11.041 2.088-8.988 9.753 3.304 12.329 6.232 2.724 16.445.765 14.776-2.835 17.784-2.887 17.784 4.639 0 5.464-.236 8.782-14.533 6.07-12.344-2.342-14.094 1.44-12.047 6.119 2.484 5.678 4.601 1.339 13.386 1.339 3.251 0 12.647 3.381 11.856 6.693-.921 3.859-3.545 6.21-10.326 2.295-7.946-4.588-9.561 5.546-11.665 5.354-2.103-.191-5.546-.191-5.546-.382z" fill="#f6f1df" fill-rule="evenodd" stroke="#000" stroke-width="3"/><path d="M138.237 273.655s-1.721-8.988 1.147-14.533c2.868-5.546 8.414-9.753 8.414-9.753s1.912 6.502 2.295 7.649c.382 1.147-11.856 16.828-11.856 16.637z" fill="#fefefe" fill-rule="evenodd"/><path d="M149.902 283.217s1.135-15.117 5.123-24.412c1.287-3 3.715-3.559 5.394-4.772l4.016 12.356-14.533 16.828z" fill="#fefefe" fill-rule="evenodd"/><path d="M136.024 298.03c0-1.393 4.482-1.403 6.513-.97.912 2.768-.277 13.164 1.109 20.092 1.386 6.928 1.386 10.254 1.386 10.254-4.018.416-8.314 2.781-8.314-4.295 0-7.365 1.247-5.82 1.247-9.561 0-3.467-2.48-6.874-1.94-15.519z" fill="#fefefe" fill-rule="evenodd"/><path d="M86.695 306.898s5.82 12.886 6.097 14.688c.277 1.801.558 7.482-2.91 7.482-4.178 0-3.326-.412-3.326-9.838 0-7.349.139-12.332.139-12.332z" fill="#fefefe" fill-rule="evenodd"/><path d="M160.75 246.385c2.997 2.331 4.828 14.675 5.494 14.175.666-.499 1.998-7.841 1.998-14.508 0-6.328-.166-1.498-7.491.333z" fill="#fefefe" fill-rule="evenodd"/><path d="M131.983 173.718l21.309 34.679" stroke="#000" stroke-width="3.5" stroke-linecap="round" fill="none"/><path d="M92.186 224.831c17.465 4.528 41.947 17.887 45.504 16.27 0 0 20.742-18.331 22.658-56.436" stroke="#000" stroke-width="3" fill="none"/><path d="M95.222 226.602s-24.176 7.401-25.656 12.335c-1.48 4.934-2.467 17.268 12.335 22.202 14.801 4.934 17.268 4.934 17.268 4.934" stroke="#000" fill="none"/></svg>