<svg xmlns="http://www.w3.org/2000/svg" xmlns:xlink="http://www.w3.org/1999/xlink" width="666.482" height="183.813"><defs><linearGradient id="b"><stop offset="0" stop-color="#2819ad" stop-opacity=".667"/><stop offset="1" stop-color="#2819ad" stop-opacity=".342"/></linearGradient><linearGradient id="a"><stop offset="0" stop-color="#003dcc" stop-opacity=".486"/><stop offset="1" stop-color="#21d3cc" stop-opacity=".333"/></linearGradient><linearGradient xlink:href="#a" id="c" gradientUnits="userSpaceOnUse" gradientTransform="matrix(.575 0 0 .454 558.968 346.269)" x1="1192.286" y1="634.286" x2="1190.571" y2="1022.857" spreadMethod="reflect"/><linearGradient xlink:href="#b" id="d" gradientUnits="userSpaceOnUse" gradientTransform="matrix(.575 0 0 .454 593.486 352.335)" x1="732.286" y1="818.076" x2="1656.286" y2="818.076"/></defs><g transform="translate(-1014.906 -632.125)"><path d="m1016.497 633.162h528.126c.319 0 .575.861.575 1.931l-.042 92.236 135.143 23.315-135.143 26.977.042 35.353c0 1.07-.257 1.931-.575 1.931-172.839-.115-368.637-.081-528.126 0-.319 0-.575-.861-.575-1.931v-177.88c0-1.07.257-1.931.575-1.931z" fill="url(#c)" stroke="url(#d)" stroke-width="2.045" stroke-linecap="round" stroke-linejoin="round" stroke-opacity=".502"/><text style="text-align:start;line-height:125%;" x="1046.233" y="683.69" font-size="18.145" letter-spacing="0" word-spacing="0" fill="#fff" font-family="Open Sans"><tspan x="1046.233" y="683.69" style="text-align:start;line-height:125%;" font-size="32.66" font-weight="bold" fill="#fff" font-family="Open Sans">Templates</tspan><tspan x="1046.233" y="726.737" style="text-align:start;line-height:125%;" font-size="29.032" fill="#fff" font-family="Andale Mono">Pablo.template(&apos;star&apos;, fn);</tspan><tspan x="1046.233" y="780.527" style="text-align:start;line-height:125%;" font-size="29.032" fill="#fff" font-family="Andale Mono">Pablo.star(settings);</tspan></text></g></svg>