<svg xmlns="http://www.w3.org/2000/svg" xmlns:xlink="http://www.w3.org/1999/xlink" width="707.268" height="234.217"><defs><linearGradient id="b"><stop offset="0" stop-color="#2819ad" stop-opacity=".667"/><stop offset="1" stop-color="#2819ad" stop-opacity=".342"/></linearGradient><linearGradient id="a"><stop offset="0" stop-color="#003dcc" stop-opacity=".486"/><stop offset="1" stop-color="#21d3cc" stop-opacity=".333"/></linearGradient><linearGradient xlink:href="#a" id="c" gradientUnits="userSpaceOnUse" gradientTransform="matrix(.559 0 0 .58 572.514 267.651)" x1="1192.286" y1="634.286" x2="1190.571" y2="1022.857" spreadMethod="reflect"/><linearGradient xlink:href="#b" id="d" gradientUnits="userSpaceOnUse" gradientTransform="matrix(.559 0 0 .58 606.056 275.393)" x1="732.286" y1="818.076" x2="1656.286" y2="818.076"/></defs><g transform="translate(-1015.406 -632.646)"><path d="m1017.104 633.785h513.191c.31 0 .559 1.099.559 2.465v52.19l190.681 29.73-189.401 30.909-1.28 114.182c-.015 1.365-.25 2.465-.559 2.465-167.95-.152-358.17-.104-513.191 0-.31 0-.559-1.099-.559-2.465v-227.01c0-1.365.249-2.465.559-2.465z" fill="url(#c)" stroke="url(#d)" stroke-width="2.277" stroke-linecap="round" stroke-linejoin="round" stroke-opacity=".502"/><text style="text-align:start;line-height:125%;-inkscape-font-specification:Open Sans" x="1046.091" y="681.67" font-size="18.145" letter-spacing="0" word-spacing="0" fill="#fff" font-family="Open Sans"><tspan x="1046.091" y="681.67" style="text-align:start;line-height:125%;-inkscape-font-specification:Open Sans Bold" font-size="32.66" font-weight="bold" fill="#fff" font-family="Open Sans">Animation</tspan><tspan x="1046.091" y="724.717" style="text-align:start;line-height:125%;-inkscape-font-specification:Andale Mono" font-size="29.032" fill="#fff" font-family="Andale Mono">Transforms and transitions</tspan><tspan x="1046.091" y="766.007" style="text-align:start;line-height:125%;-inkscape-font-specification:Andale Mono" font-size="29.032" fill="#fff" font-family="Andale Mono">- with SVG</tspan><tspan x="1046.091" y="802.296" style="text-align:start;line-height:125%;-inkscape-font-specification:Andale Mono" font-size="29.032" fill="#fff" font-family="Andale Mono">- with CSS</tspan><tspan x="1046.091" y="838.585" style="text-align:start;line-height:125%;-inkscape-font-specification:Andale Mono" font-size="29.032" fill="#fff" font-family="Andale Mono">- with JavaScript</tspan></text></g></svg>