<!-- Source: https://en.wikipedia.org/wiki/File:Fire_triangle.svg -->
<svg xmlns="http://www.w3.org/2000/svg" width="61.592" height="72.552"><path d="m26.809.544c-9.374-.331-21.129 5.642-21.531 19.455-.314 10.763-5.277 15.152-5.277 15.152 7.686.895 7.388-4.33 9.449-4.303 0 0 1.833 9.087-1.787 13.357 7.046.816 7.99-7.474 8.987-5.68.083 2.201 1.516 11.958-3.307 18.082 0 0 4.024-.06 10.484-6.53-.753 3.89-1.373 11.631 5.59 22.476.129-3.719 1.012-11.651 3.879-16.79 3.486-6.249.678-13.632 3.501-13.931 2.26-.239 4.083 11.576 4.495 14.937 2.578-.26 1.115-19.528 3.566-20.655 2.027-.931 4.322 6.788 5.586 9.998.635 1.614 2.761-13.037-.595-18.518-2.357-3.849 5.345 3.227 11.745 2.855-3.149-1.896-5.967-7.797-7.26-17.119-.618-4.46-8.664-13.171-19.165-12.884l-8.358.098z" fill="#a90000"/><path d="m33.478.285c1.763.147 11.457 5.19 10.673 12.534 0 0-2.399-1.86-5.19-1.175 1.469 2.448 7.54 11.848 4.602 15.031 0 0-5.875-7.931-6.756-6.61-.881 1.322 1.714 12.093.245 14.051 0 0-3.133-7.736-4.162-7.099-1.714 1.028-3.28 10.869-3.819 12.142 0 0-.294-12.436-1.665-11.065-1.371 1.371-4.26 6.512-4.7 8.225-2.791-1.665-1.282-15.062-.009-18.685-4.015 2.791-5.328 6.592-8.51 8.893 0 0-.668-9.688 3.788-13.115 0 0-2.221-.691-4.62.141-.196-2.644 6.854-13.072 13.415-13.415 6.561-.343 6.805.049 6.708.147z" fill="#efc517"/></svg>