<!-- Source: https://en.wikipedia.org/wiki/File:Tango_Jupiter.svg -->
<svg xmlns="http://www.w3.org/2000/svg" xmlns:xlink="http://www.w3.org/1999/xlink" width="48" height="48"><defs><linearGradient id="j"><stop offset="0" stop-color="#61330d" stop-opacity="0"/><stop offset="1" stop-color="#7b4111" stop-opacity=".602"/></linearGradient><linearGradient id="i"><stop offset="0" stop-color="#d3bda1"/><stop offset="1" stop-color="#d3bda1" stop-opacity="0"/></linearGradient><linearGradient><stop offset="0" stop-color="#ec780d"/><stop offset=".458" stop-color="#b56f2d"/><stop offset="1" stop-color="#e08f44"/></linearGradient><linearGradient xlink:href="#a" gradientUnits="userSpaceOnUse" x1="-27.007" y1="-37.55" x2="-34.7" y2="-4.449"/><linearGradient xlink:href="#b" gradientUnits="userSpaceOnUse" x1="-25.137" y1="-1.249" x2="-35.653" y2="-24.884"/><linearGradient xlink:href="#c" gradientUnits="userSpaceOnUse" x1="11.149" y1="-43.997" x2="4.963" y2="-8.308"/><linearGradient id="h"><stop offset="0"/><stop offset="1" stop-opacity="0"/></linearGradient><linearGradient id="c"><stop offset="0" stop-color="#fff"/><stop offset="1" stop-color="#fff" stop-opacity="0"/></linearGradient><linearGradient id="a"><stop offset="0" stop-color="#fff"/><stop offset="1" stop-color="#fff" stop-opacity="0"/></linearGradient><linearGradient id="g"><stop offset="0" stop-color="#edd400"/><stop offset="1" stop-color="#edd400" stop-opacity="0"/></linearGradient><linearGradient id="b"><stop offset="0" stop-color="#fcaf3e"/><stop offset="1" stop-color="#fcaf3e" stop-opacity="0"/></linearGradient><linearGradient id="f"><stop offset="0" stop-color="#fce94f"/><stop offset="1" stop-color="#fce94f" stop-opacity="0"/></linearGradient><linearGradient id="e"><stop offset="0" stop-color="#eeeeec"/><stop offset="1" stop-color="#eeeeec" stop-opacity="0"/></linearGradient><linearGradient id="d"><stop offset="0" stop-color="#fff"/><stop offset="1" stop-color="#fff" stop-opacity="0"/></linearGradient><linearGradient xlink:href="#d" gradientUnits="userSpaceOnUse" x1="14.261" y1="9.286" x2="16.852" y2="16.269" gradientTransform="translate(-1.609 3.097)"/><linearGradient xlink:href="#d" gradientUnits="userSpaceOnUse" gradientTransform="translate(3.555 .969)" x1="14.261" y1="9.286" x2="16.852" y2="16.269"/><linearGradient xlink:href="#d" gradientUnits="userSpaceOnUse" gradientTransform="translate(9.264 3.495)" x1="14.261" y1="9.286" x2="16.852" y2="16.269"/><linearGradient xlink:href="#d" gradientUnits="userSpaceOnUse" gradientTransform="translate(8.497 -2.331)" x1="14.261" y1="9.286" x2="16.852" y2="16.269"/><linearGradient xlink:href="#d" gradientUnits="userSpaceOnUse" gradientTransform="translate(14.463 2.014)" x1="14.261" y1="9.286" x2="16.852" y2="16.269"/><linearGradient xlink:href="#d" gradientUnits="userSpaceOnUse" gradientTransform="matrix(.751 0 0 1 -.197 7.613)" x1="14.261" y1="9.286" x2="16.852" y2="16.269"/><linearGradient xlink:href="#d" gradientUnits="userSpaceOnUse" gradientTransform="matrix(1.284 0 0 1 14.62 4.452)" x1="14.261" y1="9.286" x2="16.852" y2="16.269"/><linearGradient xlink:href="#d" gradientUnits="userSpaceOnUse" gradientTransform="matrix(.834 0 0 1 14.876 8.57)" x1="14.261" y1="9.286" x2="16.852" y2="16.269"/><linearGradient xlink:href="#d" gradientUnits="userSpaceOnUse" gradientTransform="matrix(1.462 0 0 1.262 -5.687 1.81)" x1="14.261" y1="9.286" x2="16.852" y2="16.269"/><linearGradient xlink:href="#d" gradientUnits="userSpaceOnUse" gradientTransform="matrix(1.107 0 0 1 6.384 6.5)" x1="14.261" y1="9.286" x2="16.852" y2="16.269"/><linearGradient xlink:href="#d" gradientUnits="userSpaceOnUse" gradientTransform="translate(1.708 -5.784)" x1="14.261" y1="9.286" x2="16.852" y2="16.269"/><linearGradient xlink:href="#d" gradientUnits="userSpaceOnUse" gradientTransform="matrix(-.976 0 0 1 53.948 8.564)" x1="14.261" y1="9.286" x2="16.852" y2="16.269"/><linearGradient xlink:href="#d" gradientUnits="userSpaceOnUse" gradientTransform="translate(16.14 24.664)" x1="14.261" y1="9.286" x2="16.852" y2="16.269"/><linearGradient xlink:href="#d" gradientUnits="userSpaceOnUse" gradientTransform="translate(-.932 25.872)" x1="14.261" y1="9.286" x2="16.852" y2="16.269"/><linearGradient xlink:href="#d" gradientUnits="userSpaceOnUse" gradientTransform="translate(5.357 23.869)" x1="14.261" y1="9.286" x2="16.852" y2="16.269"/><linearGradient xlink:href="#d" gradientUnits="userSpaceOnUse" gradientTransform="translate(11.19 26.52)" x1="14.261" y1="9.286" x2="16.852" y2="16.269"/><linearGradient xlink:href="#d" gradientUnits="userSpaceOnUse" gradientTransform="translate(10.306 19.273)" x1="14.261" y1="9.286" x2="16.852" y2="16.269"/><linearGradient xlink:href="#d" gradientUnits="userSpaceOnUse" gradientTransform="matrix(.751 0 0 1 .229 30.763)" x1="14.261" y1="9.286" x2="16.852" y2="16.269"/><linearGradient xlink:href="#d" gradientUnits="userSpaceOnUse" gradientTransform="matrix(1.284 0 0 1 16.671 27.227)" x1="14.261" y1="9.286" x2="16.852" y2="16.269"/><linearGradient xlink:href="#d" gradientUnits="userSpaceOnUse" gradientTransform="matrix(.834 0 0 1 17.053 31.47)" x1="14.261" y1="9.286" x2="16.852" y2="16.269"/><linearGradient xlink:href="#d" gradientUnits="userSpaceOnUse" gradientTransform="matrix(1.462 0 0 1.262 -4.011 24.96)" x1="14.261" y1="9.286" x2="16.852" y2="16.269"/><linearGradient xlink:href="#d" gradientUnits="userSpaceOnUse" gradientTransform="matrix(1.107 0 0 1 8.185 29.526)" x1="14.261" y1="9.286" x2="16.852" y2="16.269"/><linearGradient xlink:href="#d" gradientUnits="userSpaceOnUse" gradientTransform="translate(4.208 21.305)" x1="14.261" y1="9.286" x2="16.852" y2="16.269"/><linearGradient xlink:href="#d" gradientUnits="userSpaceOnUse" gradientTransform="matrix(-.976 0 0 1 56.124 32.089)" x1="14.261" y1="9.286" x2="16.852" y2="16.269"/><linearGradient xlink:href="#e" x1="6.665" y1="13.803" x2="41.404" y2="13.803" gradientUnits="userSpaceOnUse" gradientTransform="matrix(.992 0 0 .991 1.129 5.404)"/><linearGradient xlink:href="#d" gradientUnits="userSpaceOnUse" gradientTransform="translate(14.463 2.014)" x1="14.261" y1="9.286" x2="16.852" y2="16.269"/><linearGradient xlink:href="#d" gradientUnits="userSpaceOnUse" gradientTransform="translate(8.497 -2.331)" x1="14.261" y1="9.286" x2="16.852" y2="16.269"/><linearGradient xlink:href="#d" gradientUnits="userSpaceOnUse" gradientTransform="translate(-1.609 3.097)" x1="14.261" y1="9.286" x2="16.852" y2="16.269"/><linearGradient xlink:href="#d" gradientUnits="userSpaceOnUse" gradientTransform="translate(3.555 .969)" x1="14.261" y1="9.286" x2="16.852" y2="16.269"/><linearGradient xlink:href="#d" gradientUnits="userSpaceOnUse" gradientTransform="translate(9.264 3.495)" x1="14.261" y1="9.286" x2="16.852" y2="16.269"/><linearGradient xlink:href="#d" gradientUnits="userSpaceOnUse" gradientTransform="matrix(.751 0 0 1 -.197 7.613)" x1="14.261" y1="9.286" x2="16.852" y2="16.269"/><linearGradient xlink:href="#d" gradientUnits="userSpaceOnUse" gradientTransform="matrix(1.284 0 0 1 14.62 4.452)" x1="14.261" y1="9.286" x2="16.852" y2="16.269"/><linearGradient xlink:href="#d" gradientUnits="userSpaceOnUse" gradientTransform="matrix(.834 0 0 1 14.876 8.57)" x1="14.261" y1="9.286" x2="16.852" y2="16.269"/><linearGradient xlink:href="#d" gradientUnits="userSpaceOnUse" gradientTransform="matrix(1.462 0 0 1.262 -5.687 1.81)" x1="14.261" y1="9.286" x2="16.852" y2="16.269"/><linearGradient xlink:href="#d" gradientUnits="userSpaceOnUse" gradientTransform="matrix(1.107 0 0 1 6.384 6.5)" x1="14.261" y1="9.286" x2="16.852" y2="16.269"/><linearGradient xlink:href="#d" gradientUnits="userSpaceOnUse" gradientTransform="matrix(-.976 0 0 1 53.948 8.564)" x1="14.261" y1="9.286" x2="16.852" y2="16.269"/><linearGradient xlink:href="#e" gradientUnits="userSpaceOnUse" gradientTransform="matrix(.992 0 0 .991 1.129 5.404)" x1="6.665" y1="13.803" x2="41.404" y2="13.803"/><linearGradient xlink:href="#e" gradientUnits="userSpaceOnUse" gradientTransform="matrix(.992 0 0 .991 4.379 10.654)" x1="6.665" y1="13.803" x2="41.404" y2="13.803"/><linearGradient xlink:href="#d" gradientUnits="userSpaceOnUse" gradientTransform="matrix(1.107 0 0 1 9.634 11.75)" x1="14.261" y1="9.286" x2="16.852" y2="16.269"/><linearGradient xlink:href="#d" gradientUnits="userSpaceOnUse" gradientTransform="matrix(1.462 0 0 1.262 -2.437 7.06)" x1="14.261" y1="9.286" x2="16.852" y2="16.269"/><linearGradient xlink:href="#d" gradientUnits="userSpaceOnUse" gradientTransform="matrix(.834 0 0 1 18.126 13.82)" x1="14.261" y1="9.286" x2="16.852" y2="16.269"/><linearGradient xlink:href="#d" gradientUnits="userSpaceOnUse" gradientTransform="matrix(.751 0 0 1 3.053 12.863)" x1="14.261" y1="9.286" x2="16.852" y2="16.269"/><linearGradient xlink:href="#d" gradientUnits="userSpaceOnUse" gradientTransform="translate(12.514 8.745)" x1="14.261" y1="9.286" x2="16.852" y2="16.269"/><linearGradient xlink:href="#d" gradientUnits="userSpaceOnUse" gradientTransform="translate(6.805 6.219)" x1="14.261" y1="9.286" x2="16.852" y2="16.269"/><linearGradient xlink:href="#d" gradientUnits="userSpaceOnUse" gradientTransform="translate(1.641 8.347)" x1="14.261" y1="9.286" x2="16.852" y2="16.269"/><linearGradient xlink:href="#d" gradientUnits="userSpaceOnUse" gradientTransform="translate(.842 -3.998)" x1="14.261" y1="9.286" x2="16.852" y2="16.269"/><linearGradient xlink:href="#f" x1="37" y1="-21.75" x2="53.75" y2="9" gradientUnits="userSpaceOnUse"/><linearGradient xlink:href="#f" gradientUnits="userSpaceOnUse" x1="37" y1="-21.75" x2="53.75" y2="9" gradientTransform="matrix(.889 0 0 .618 -4.771 39.814)"/><linearGradient xlink:href="#f" gradientUnits="userSpaceOnUse" gradientTransform="matrix(.606 0 0 .711 -.225 42.195)" x1="38.858" y1="-18.407" x2="53.75" y2="9"/><linearGradient xlink:href="#f" gradientUnits="userSpaceOnUse" gradientTransform="matrix(.414 0 0 .779 -1.911 36.879)" x1="37" y1="-21.75" x2="53.75" y2="9"/><linearGradient xlink:href="#b" x1="-25.137" y1="-1.249" x2="-35.653" y2="-24.884" gradientUnits="userSpaceOnUse"/><linearGradient xlink:href="#d" gradientUnits="userSpaceOnUse" gradientTransform="translate(17.338 3.416)" x1="14.261" y1="9.286" x2="16.852" y2="16.269"/><linearGradient xlink:href="#d" gradientUnits="userSpaceOnUse" gradientTransform="translate(13.401 1.353)" x1="14.261" y1="9.286" x2="16.852" y2="16.269"/><linearGradient xlink:href="#d" gradientUnits="userSpaceOnUse" gradientTransform="translate(-7.5 1.709)" x1="14.261" y1="9.286" x2="16.852" y2="16.269"/><linearGradient xlink:href="#d" gradientUnits="userSpaceOnUse" gradientTransform="translate(-.727 2.481)" x1="14.261" y1="9.286" x2="16.852" y2="16.269"/><linearGradient xlink:href="#g" x1="23.304" y1="29.116" x2="29.75" y2="46.093" gradientUnits="userSpaceOnUse"/><linearGradient xlink:href="#d" gradientUnits="userSpaceOnUse" gradientTransform="translate(13.401 1.353)" x1="14.261" y1="9.286" x2="16.852" y2="16.269"/><linearGradient xlink:href="#d" gradientUnits="userSpaceOnUse" gradientTransform="translate(1.641 8.347)" x1="14.261" y1="9.286" x2="16.852" y2="16.269"/><linearGradient xlink:href="#d" gradientUnits="userSpaceOnUse" gradientTransform="translate(6.805 6.219)" x1="14.261" y1="9.286" x2="16.852" y2="16.269"/><linearGradient xlink:href="#d" gradientUnits="userSpaceOnUse" gradientTransform="translate(12.514 8.745)" x1="14.261" y1="9.286" x2="16.852" y2="16.269"/><linearGradient xlink:href="#d" gradientUnits="userSpaceOnUse" gradientTransform="matrix(.751 0 0 1 3.053 12.863)" x1="14.261" y1="9.286" x2="16.852" y2="16.269"/><linearGradient xlink:href="#d" gradientUnits="userSpaceOnUse" gradientTransform="matrix(.834 0 0 1 18.126 13.82)" x1="14.261" y1="9.286" x2="16.852" y2="16.269"/><linearGradient xlink:href="#d" gradientUnits="userSpaceOnUse" gradientTransform="matrix(1.462 0 0 1.262 -2.437 7.06)" x1="14.261" y1="9.286" x2="16.852" y2="16.269"/><linearGradient xlink:href="#d" gradientUnits="userSpaceOnUse" gradientTransform="matrix(1.107 0 0 1 9.634 11.75)" x1="14.261" y1="9.286" x2="16.852" y2="16.269"/><linearGradient xlink:href="#d" gradientUnits="userSpaceOnUse" gradientTransform="matrix(1.107 0 0 1 .795 6.094)" x1="14.261" y1="9.286" x2="16.852" y2="16.269"/><linearGradient xlink:href="#d" gradientUnits="userSpaceOnUse" gradientTransform="matrix(1.462 0 0 1.262 -11.276 1.403)" x1="14.261" y1="9.286" x2="16.852" y2="16.269"/><linearGradient xlink:href="#d" gradientUnits="userSpaceOnUse" gradientTransform="matrix(.834 0 0 1 9.287 8.163)" x1="14.261" y1="9.286" x2="16.852" y2="16.269"/><linearGradient xlink:href="#d" gradientUnits="userSpaceOnUse" gradientTransform="matrix(.751 0 0 1 -5.786 7.206)" x1="14.261" y1="9.286" x2="16.852" y2="16.269"/><linearGradient xlink:href="#d" gradientUnits="userSpaceOnUse" gradientTransform="translate(3.675 3.088)" x1="14.261" y1="9.286" x2="16.852" y2="16.269"/><linearGradient xlink:href="#d" gradientUnits="userSpaceOnUse" gradientTransform="translate(-2.034 .562)" x1="14.261" y1="9.286" x2="16.852" y2="16.269"/><linearGradient xlink:href="#d" gradientUnits="userSpaceOnUse" gradientTransform="translate(-7.198 2.69)" x1="14.261" y1="9.286" x2="16.852" y2="16.269"/><linearGradient xlink:href="#d" gradientUnits="userSpaceOnUse" gradientTransform="translate(4.562 -4.303)" x1="14.261" y1="9.286" x2="16.852" y2="16.269"/><linearGradient xlink:href="#d" gradientUnits="userSpaceOnUse" gradientTransform="translate(88.493 -9.698)" x1="14.261" y1="9.286" x2="16.852" y2="16.269"/><linearGradient xlink:href="#d" gradientUnits="userSpaceOnUse" gradientTransform="matrix(1.462 0 0 1.262 56.255 -12.394)" x1="14.261" y1="9.286" x2="16.852" y2="16.269"/><linearGradient xlink:href="#d" gradientUnits="userSpaceOnUse" gradientTransform="matrix(1.284 0 0 1 79.369 -3.194)" x1="14.261" y1="9.286" x2="16.852" y2="16.269"/><linearGradient xlink:href="#b" gradientUnits="userSpaceOnUse" x1="-25.137" y1="-1.249" x2="-35.653" y2="-24.884"/><linearGradient xlink:href="#d" gradientUnits="userSpaceOnUse" gradientTransform="translate(-7.198 2.69)" x1="14.261" y1="9.286" x2="16.852" y2="16.269"/><linearGradient xlink:href="#d" gradientUnits="userSpaceOnUse" gradientTransform="translate(-2.034 .562)" x1="14.261" y1="9.286" x2="16.852" y2="16.269"/><linearGradient xlink:href="#d" gradientUnits="userSpaceOnUse" gradientTransform="translate(3.675 3.088)" x1="14.261" y1="9.286" x2="16.852" y2="16.269"/><linearGradient xlink:href="#d" gradientUnits="userSpaceOnUse" gradientTransform="matrix(.751 0 0 1 -5.786 7.206)" x1="14.261" y1="9.286" x2="16.852" y2="16.269"/><linearGradient xlink:href="#d" gradientUnits="userSpaceOnUse" gradientTransform="matrix(.834 0 0 1 9.287 8.163)" x1="14.261" y1="9.286" x2="16.852" y2="16.269"/><linearGradient xlink:href="#d" gradientUnits="userSpaceOnUse" gradientTransform="matrix(1.462 0 0 1.262 -11.276 1.403)" x1="14.261" y1="9.286" x2="16.852" y2="16.269"/><linearGradient xlink:href="#d" gradientUnits="userSpaceOnUse" gradientTransform="matrix(1.107 0 0 1 .795 6.094)" x1="14.261" y1="9.286" x2="16.852" y2="16.269"/><linearGradient xlink:href="#d" gradientUnits="userSpaceOnUse" gradientTransform="matrix(-.976 0 0 1 123.116 -5.446)" x1="14.261" y1="9.286" x2="16.852" y2="16.269"/><linearGradient xlink:href="#d" gradientUnits="userSpaceOnUse" gradientTransform="translate(57.977 -10.569)" x1="14.261" y1="9.286" x2="16.852" y2="16.269"/><linearGradient xlink:href="#b" gradientUnits="userSpaceOnUse" x1="-25.137" y1="-1.249" x2="-35.653" y2="-24.884"/><radialGradient xlink:href="#h" cx="-35.002" cy="-1.144" fx="-35.002" fy="-1.144" r="17.501" gradientTransform="matrix(1 0 0 .566 0 -.497)" gradientUnits="userSpaceOnUse"/><linearGradient xlink:href="#a" gradientUnits="userSpaceOnUse" x1="-27.007" y1="-37.55" x2="-34.7" y2="-4.449"/><linearGradient xlink:href="#c" gradientUnits="userSpaceOnUse" x1="11.149" y1="-43.997" x2="4.963" y2="-8.308"/><linearGradient xlink:href="#c" gradientUnits="userSpaceOnUse" x1="11.149" y1="-43.997" x2="4.963" y2="-8.308"/><linearGradient xlink:href="#b" gradientUnits="userSpaceOnUse" x1="-25.137" y1="-1.249" x2="-35.653" y2="-24.884"/><linearGradient xlink:href="#a" gradientUnits="userSpaceOnUse" x1="-27.007" y1="-37.55" x2="-34.7" y2="-4.449"/><linearGradient xlink:href="#i" id="q" x1="330.818" y1="-441.646" x2="333.638" y2="-444.328" gradientUnits="userSpaceOnUse"/><linearGradient xlink:href="#i" id="r" gradientUnits="userSpaceOnUse" x1="327.412" y1="-440.286" x2="325.313" y2="-445.021"/><radialGradient xlink:href="#j" id="s" cx="-27.422" cy="-16.483" fx="-27.422" fy="-16.483" r="9.781" gradientUnits="userSpaceOnUse" gradientTransform="matrix(-1.432 -.447 .298 -.955 -61.784 -44.466)"/><radialGradient gradientUnits="userSpaceOnUse" gradientTransform="matrix(.953 -.027 .026 .936 .663 2.179)" r="19.094" fy="31.097" fx="37.179" cy="31.097" cx="37.179" xlink:href="#k"/><linearGradient y2="21.336" x2="-21.962" y1="15.649" x1="-21.659" gradientUnits="userSpaceOnUse" xlink:href="#l"/><linearGradient y2="22.662" x2="-22.114" y1="28.338" x1="-22.823" gradientUnits="userSpaceOnUse" xlink:href="#l"/><linearGradient y2="22.662" x2="-22.114" y1="30.057" x1="-25.176" gradientUnits="userSpaceOnUse" xlink:href="#l"/><linearGradient gradientUnits="userSpaceOnUse" y2="21.042" x2="-22.252" y1="30.057" x1="-25.176" xlink:href="#l"/><radialGradient r="6.718" fy="12.493" fx="12.071" cy="12.493" cx="12.071" gradientUnits="userSpaceOnUse" xlink:href="#m"/><radialGradient r="6.718" fy="12.493" fx="12.071" cy="12.493" cx="12.071" gradientUnits="userSpaceOnUse" xlink:href="#m"/><radialGradient r="6.718" fy="12.493" fx="12.071" cy="12.493" cx="12.071" gradientUnits="userSpaceOnUse" xlink:href="#m"/><radialGradient r="6.718" fy="12.493" fx="12.071" cy="12.493" cx="12.071" gradientUnits="userSpaceOnUse" xlink:href="#m"/><linearGradient><stop offset="0" stop-color="#d3e9ff"/><stop offset=".155" stop-color="#d3e9ff"/><stop offset=".75" stop-color="#4074ae"/><stop offset="1" stop-color="#36486c"/></linearGradient><linearGradient><stop offset="0" stop-color="#fff"/><stop offset="1" stop-color="#fff" stop-opacity=".165"/></linearGradient><linearGradient id="m"><stop offset="0" stop-color="#fff"/><stop offset="1" stop-color="#fff" stop-opacity="0"/></linearGradient><linearGradient id="l"><stop offset="0" stop-color="#fff"/><stop offset="1" stop-color="#fff" stop-opacity="0"/></linearGradient><linearGradient id="k"><stop offset="0" stop-color="#346604"/><stop offset="1" stop-color="#4e9a06"/></linearGradient><radialGradient xlink:href="#k" gradientUnits="userSpaceOnUse" gradientTransform="matrix(.953 -.027 .026 .936 .663 2.179)" cx="37.179" cy="31.097" fx="37.179" fy="31.097" r="19.094"/><radialGradient xlink:href="#k" gradientUnits="userSpaceOnUse" gradientTransform="matrix(.953 -.027 .026 .936 .663 2.179)" cx="37.179" cy="31.097" fx="37.179" fy="31.097" r="19.094"/><radialGradient xlink:href="#k" gradientUnits="userSpaceOnUse" gradientTransform="matrix(.953 -.027 .026 .936 .663 2.179)" cx="37.179" cy="31.097" fx="37.179" fy="31.097" r="19.094"/><radialGradient xlink:href="#k" gradientUnits="userSpaceOnUse" gradientTransform="matrix(.953 -.027 .026 .936 .663 2.179)" cx="37.179" cy="31.097" fx="37.179" fy="31.097" r="19.094"/><radialGradient xlink:href="#k" gradientUnits="userSpaceOnUse" gradientTransform="matrix(.953 -.027 .026 .936 .663 2.179)" cx="37.179" cy="31.097" fx="37.179" fy="31.097" r="19.094"/><radialGradient xlink:href="#k" gradientUnits="userSpaceOnUse" gradientTransform="matrix(.953 -.027 .026 .936 .663 2.179)" cx="37.179" cy="31.097" fx="37.179" fy="31.097" r="19.094"/><radialGradient xlink:href="#k" gradientUnits="userSpaceOnUse" gradientTransform="matrix(.953 -.027 .026 .936 .663 2.179)" cx="37.179" cy="31.097" fx="37.179" fy="31.097" r="19.094"/><radialGradient xlink:href="#k" gradientUnits="userSpaceOnUse" gradientTransform="matrix(.953 -.027 .026 .936 .663 2.179)" cx="37.179" cy="31.097" fx="37.179" fy="31.097" r="19.094"/><radialGradient xlink:href="#k" gradientUnits="userSpaceOnUse" gradientTransform="matrix(.953 -.027 .026 .936 .663 2.179)" cx="37.179" cy="31.097" fx="37.179" fy="31.097" r="19.094"/><radialGradient xlink:href="#k" gradientUnits="userSpaceOnUse" gradientTransform="matrix(.953 -.027 .026 .936 .663 2.179)" cx="37.179" cy="31.097" fx="37.179" fy="31.097" r="19.094"/><radialGradient xlink:href="#k" gradientUnits="userSpaceOnUse" gradientTransform="matrix(.953 -.027 .026 .936 .663 2.179)" cx="37.179" cy="31.097" fx="37.179" fy="31.097" r="19.094"/><radialGradient xlink:href="#k" gradientUnits="userSpaceOnUse" gradientTransform="matrix(.953 -.027 .026 .936 .663 2.179)" cx="37.179" cy="31.097" fx="37.179" fy="31.097" r="19.094"/><radialGradient xlink:href="#k" gradientUnits="userSpaceOnUse" gradientTransform="matrix(.953 -.027 .026 .936 .663 2.179)" cx="37.179" cy="31.097" fx="37.179" fy="31.097" r="19.094"/><radialGradient xlink:href="#k" gradientUnits="userSpaceOnUse" gradientTransform="matrix(.953 -.027 .026 .936 .663 2.179)" cx="37.179" cy="31.097" fx="37.179" fy="31.097" r="19.094"/><radialGradient xlink:href="#k" gradientUnits="userSpaceOnUse" gradientTransform="matrix(.953 -.027 .026 .936 .663 2.179)" cx="37.179" cy="31.097" fx="37.179" fy="31.097" r="19.094"/><radialGradient xlink:href="#k" gradientUnits="userSpaceOnUse" gradientTransform="matrix(.953 -.027 .026 .936 .663 2.179)" cx="37.179" cy="31.097" fx="37.179" fy="31.097" r="19.094"/><radialGradient xlink:href="#k" gradientUnits="userSpaceOnUse" gradientTransform="matrix(.953 -.027 .026 .936 .663 2.179)" cx="37.179" cy="31.097" fx="37.179" fy="31.097" r="19.094"/><radialGradient xlink:href="#k" gradientUnits="userSpaceOnUse" gradientTransform="matrix(.953 -.027 .026 .936 .663 2.179)" cx="37.179" cy="31.097" fx="37.179" fy="31.097" r="19.094"/><radialGradient xlink:href="#k" gradientUnits="userSpaceOnUse" gradientTransform="matrix(.953 -.027 .026 .936 .663 2.179)" cx="37.179" cy="31.097" fx="37.179" fy="31.097" r="19.094"/><radialGradient xlink:href="#k" gradientUnits="userSpaceOnUse" gradientTransform="matrix(.953 -.027 .026 .936 .663 2.179)" cx="37.179" cy="31.097" fx="37.179" fy="31.097" r="19.094"/><radialGradient xlink:href="#k" gradientUnits="userSpaceOnUse" gradientTransform="matrix(.953 -.027 .026 .936 .663 2.179)" cx="37.179" cy="31.097" fx="37.179" fy="31.097" r="19.094"/><radialGradient xlink:href="#k" gradientUnits="userSpaceOnUse" gradientTransform="matrix(.953 -.027 .026 .936 .663 2.179)" cx="37.179" cy="31.097" fx="37.179" fy="31.097" r="19.094"/><radialGradient xlink:href="#k" gradientUnits="userSpaceOnUse" gradientTransform="matrix(.953 -.027 .026 .936 .663 2.179)" cx="37.179" cy="31.097" fx="37.179" fy="31.097" r="19.094"/><radialGradient xlink:href="#k" gradientUnits="userSpaceOnUse" gradientTransform="matrix(.953 -.027 .026 .936 .663 2.179)" cx="37.179" cy="31.097" fx="37.179" fy="31.097" r="19.094"/><radialGradient xlink:href="#k" gradientUnits="userSpaceOnUse" gradientTransform="matrix(.953 -.027 .026 .936 .663 2.179)" cx="37.179" cy="31.097" fx="37.179" fy="31.097" r="19.094"/><radialGradient xlink:href="#k" gradientUnits="userSpaceOnUse" gradientTransform="matrix(.953 -.027 .026 .936 .663 2.179)" cx="37.179" cy="31.097" fx="37.179" fy="31.097" r="19.094"/><radialGradient gradientUnits="userSpaceOnUse" r="12.289" fy="63.965" fx="15.116" cy="63.965" cx="15.116" gradientTransform="scale(1.644 .608)" xlink:href="#n"/><linearGradient id="n"><stop offset="0"/><stop offset="1" stop-opacity="0"/></linearGradient><radialGradient r="12.289" fy="63.965" fx="15.116" cy="63.965" cx="15.116" gradientTransform="scale(1.644 .608)" gradientUnits="userSpaceOnUse" xlink:href="#n"/><radialGradient xlink:href="#o" gradientUnits="userSpaceOnUse" gradientTransform="matrix(1 0 0 .5 0 20)" cx="23.857" cy="40" fx="23.857" fy="40" r="17.143"/><linearGradient id="o"><stop offset="0"/><stop offset="1" stop-opacity="0"/></linearGradient><radialGradient r="17.143" fy="40" fx="23.857" cy="40" cx="23.857" gradientTransform="matrix(1 0 0 .5 0 20)" gradientUnits="userSpaceOnUse" id="p" xlink:href="#o"/></defs><path transform="matrix(1.071 0 0 .525 -1.54 22.5)" d="M41 40a17.143 8.571 0 1 1-34.286 0 17.143 8.571 0 1 1 34.286 0z" opacity=".6" color="#000" fill="url(#p)" display="block" overflow="visible"/><path d="m-46.5.25a9.75 9.75 0 1 1-19.5 0 9.75 9.75 0 1 1 19.5 0z" transform="matrix(2 0 0 2 136.5 23.5)" fill="#aa592d"/><path d="m7.416 31.92l33.569-.283-3.301 4.81h-27.061z" fill="#af804e"/><path d="m15.063 7.952l7.67-2.201 3.602.067 7.07 2.334.067.467-19.075.2.667-.867z" fill="#b69564"/><path d="m5.531 20.813c1.498-2.386 7.293-2.681 9.207-1.538 1.613.964 3.989.502 6.872-.27 1.806-.483 3.277 2.208 8.61.478 2.593-.841 4.753-.874 7.779-.483 1.414.183 3.149.275 3.848.905.832.749.498 2.103.576 3.109.354 4.596-4.648 5.809-8.483 3.977-3.281-1.567-6.556 2.561-10.607 1.521-4.425-1.136-9.728-1.614-11.334-.513-1.686 1.156-5.325 1.034-6.054-.752-.678-1.661-.615-4.143-.414-6.435z" fill="#b76c3c"/><path d="m7.243 33h33.257l1-3h-35z" fill="#d3bda1"/><path d="m26.965 31.535c1.396 2.626 7.52 6.838 12.932.014-1.768-.619-13.153-.146-12.932-.014z" fill="#d3bda1"/><path d="m26.965 30.951c1.396-2.626 7.52-6.838 12.932-.014-1.768.619-13.153.146-12.932.014z" fill="#d3bda1"/><path d="m322.689-446.022z" stroke="#000" stroke-width=".74" fill="none" transform="matrix(1.352 0 0 1.352 -421.942 625.694)"/><path d="m320.647-455.101h18.494" stroke="#a09b8c" stroke-width=".74" fill="none" transform="matrix(1.352 0 0 1.352 -421.942 625.694)"/><path d="m319.907-454.361h19.974" fill="#cfa565" stroke="#cfa565" stroke-width=".74" transform="matrix(1.352 0 0 1.352 -421.942 625.694)"/><path transform="matrix(1.13 0 0 1.318 -2.218 -10.191)" d="M35 31.375c0 .897-1.511 1.625-3.375 1.625s-3.375-.728-3.375-1.625 1.511-1.625 3.375-1.625 3.375.728 3.375 1.625z" fill="#fbad3e" stroke="#ca6919" stroke-width=".82" stroke-linecap="round"/><path d="M35.046 31.267c0 .502-.727.908-1.623.908-.897 0-1.623-.407-1.623-.908 0-.502.727-.908 1.623-.908.897 0 1.623.407 1.623.908z" fill="#f57900"/><path d="m26.094 30.428c-.187-2.258.772-3.104 3.041-2.967-2.453-1.309-5.423.826-5.879 2.693" fill="url(#q)"/><path d="m320.277-435.127h18.864" stroke="#7d6f62" stroke-width=".74" fill="none" transform="matrix(1.352 0 0 1.352 -421.942 625.694)"/><path d="m319.907-435.867h19.974" fill="#d3bda1" stroke="#d3bda1" stroke-width=".74" transform="matrix(1.352 0 0 1.352 -421.942 625.694)"/><path d="m316.208-444.744h27.371" stroke="#b5b6b3" stroke-width=".74" fill="none" transform="matrix(1.352 0 0 1.352 -421.942 625.694)"/><path d="m6.073 20.9l-.5 3h37.005l-.5-3z" style="text-indent:0;text-align:start;line-height:normal;text-transform:none;block-progression:tb;-inkscape-font-specification:Bitstream Vera Sans" color="#000" fill="#e8cb9e" overflow="visible" enable-background="accumulate" font-family="Bitstream Vera Sans"/><path d="m318.797-452.881h22.193" fill="#cfa565" stroke="#dcb999" stroke-width=".74" transform="matrix(1.352 0 0 1.352 -421.942 625.694)"/><path d="m318.427-452.142h23.303" fill="#eeeeec" stroke="#babdb6" stroke-width=".74" transform="matrix(1.352 0 0 1.352 -421.942 625.694)"/><path d="m7.557 14.893l-1 1.986h35.041l-1-1.986z" style="text-indent:0;text-align:start;line-height:normal;text-transform:none;block-progression:tb;-inkscape-font-specification:Bitstream Vera Sans" color="#000" fill="#d6aa67" overflow="visible" enable-background="accumulate" font-family="Bitstream Vera Sans"/><path d="m317.318-449.922h25.522" fill="#eeeeec" stroke="#babdb6" stroke-width=".74" transform="matrix(1.352 0 0 1.352 -421.942 625.694)"/><path d="m20.719 30.428c-.187-2.258.772-3.104 3.041-2.967-2.453-1.309-5.423.826-5.879 2.693" fill="url(#r)"/><path d="m323.236-433.278h13.316" fill="#956232" stroke="#956232" stroke-width=".74" transform="matrix(1.352 0 0 1.352 -421.942 625.694)"/><path d="m324.346-432.168h11.097" fill="#ae8c6a" stroke="#ae8c6a" stroke-width="1.48" transform="matrix(1.352 0 0 1.352 -421.942 625.694)"/><path d="M43.5 24c.106 7.668-4.822 15.063-11.91 17.968-7.036 3.067-15.789 1.424-21.212-4.015-5.505-5.235-7.385-13.815-4.611-20.881 2.666-7.258 9.99-12.475 17.73-12.566 7.673-.304 15.201 4.444 18.281 11.469 1.139 2.512 1.726 5.268 1.723 8.025z" stroke="#61330d" fill="none"/><path d="m-22.5-17.5a9.5 9.5 0 1 1-19 0 9.5 9.5 0 1 1 19 0z" transform="matrix(-1.8 -.741 .741 -1.8 -20.646 -31.208)" fill="url(#s)" stroke="#d3d7cf" stroke-width=".514" stroke-linecap="square"/></svg>