<svg width="1000" height="1000" xmlns="http://www.w3.org/2000/svg">
 <!-- Created with SVG-edit - http://svg-edit.googlecode.com/ -->
 <title/>

 <g>
  <title>Layer 1</title>
  <g id="surya-fruit">
   <path stroke="#000000" d="m455.877991,304c-6.453979,0 -6.453979,-0.699982 -12.906982,-0.699982c0,0 0,-0.700012 0,-1.400024c0,-1.399994 0,-3.5 0,-5.599976c0,-2.800018 -4.274994,-5.817017 6.453003,-7.700012c4.797974,-0.84201 7.668976,-1.360992 12.906982,-3.5c8.445007,-3.450012 24.375,-10.537994 51.623962,-22.399994c30.655029,-13.345001 64.63501,-24.230011 83.890015,-30.800018c9.970032,-3.401993 12.907043,-4.899994 19.360046,-4.899994c0,0 6.452942,0 6.452942,0.699997c0,1.400009 0,2.100006 0,3.5c0,0.699997 0,1.400009 0,2.100021c0,0.699982 4.563049,0.904999 0,1.399994c-4.562927,0.494995 -6.452942,0 -6.452942,0.699982l-6.453003,0l-6.454041,0l-6.453003,0" id="svg_13" stroke-width="5" fill="none"/>
   <path d="m451,295c0,-1 1,-1 2,-1c1,0 2,0 3,0c2,0 2.692993,-0.458984 4,-1c0.924011,-0.382996 1.292999,-1.292999 2,-2c0.707001,-0.707001 2.330017,-1.869995 6,-4c9.860992,-5.723022 19.947998,-6.149017 34,-11c5.978027,-2.063995 11.078003,-2.789978 14,-4c2.06604,-0.855988 2.189026,-1.414978 3,-2c2.565002,-1.848999 3,-4 3,-4c0,-1 0,-2 -1,-2c0,0 -0.692993,-0.458984 -2,-1c-1.848022,-0.765015 -5.907959,-1.496002 -10,-2c-4.963013,-0.610992 -10,0 -14,0c-6,0 -12.214996,-0.880981 -18,1c-6.378998,2.074005 -12.625,5.414001 -17,9c-2.787994,2.286011 -4,3 -4,4l0,1" id="svg_14" stroke-linecap="null" stroke-linejoin="null" stroke-dasharray="null" stroke-width="5" stroke="#000000" fill="none"/>
   <path d="m475,269c1,-2 1,-3 1,-4c0,-2 0.242004,-6.950012 2,-16c1.160004,-5.970978 2,-14 2,-22c0,-4 0,-6 0,-5c0,3 -0.496002,6.908005 -1,11c-0.733002,5.955017 -2.231995,13.927979 -4,20c-2.306,7.917023 -5.760986,17.526001 -13,30c-3.367004,5.802002 -12.575989,19.654022 -19,31c-3.304993,5.837006 -5,9 -6,9c0,0 0,-2 0,-4c0,-4 0,-12 0,-23c0,-15 0,-43 0,-91c0,-35 0.556,-43.125702 -4,-62c-2.675995,-11.083405 -7.197021,-19.894699 -13,-31c-6.213013,-11.890999 -12.040985,-23.948997 -22,-32c-5.21698,-4.2173 -11.90799,-6.496201 -16,-7c-2.977997,-0.3666 -3.769989,0.026703 -4,1c-1.027008,4.352501 -2,6 -2,8c0,1 -1.147003,2.863251 -3,5c-3.276001,3.777267 -7.606018,9.247391 -14,19c-4.71701,7.193893 -11.431885,16.813705 -16,28c-4.42511,10.835999 -6.577301,23.03949 -8,36c-1.543091,14.057709 -2,28 -2,50c0,13 -0.940002,27.536987 3,38c2.05481,5.457001 5.549194,9.955017 9,11c2.871307,0.869019 5.205994,-0.915985 12,-6c10.031982,-7.507019 35.561005,-20.854004 68,-37c42.455017,-21.132004 84.174988,-40.235001 93,-42c25.494995,-5.098999 52.127991,-6.698105 55,-23c0.736023,-4.178299 -6,-4 -11,-10l-5,-6l-26,-8" id="svg_15" stroke-linecap="null" stroke-linejoin="null" stroke-dasharray="null" stroke-width="5" stroke="#000000" fill="none"/>
   <path d="m579,440c1,0 2.118042,-0.471985 3,0c3.179016,1.700989 6.463989,7.725006 13,12c7.485962,4.895996 16.131958,7.755005 20,10c3.118042,1.809998 5.692993,3.186005 7,5c0.826965,1.147003 1.963989,1.115997 5,2c3.959045,1.153015 7,1 8,1c2,0 1.29303,-1.292999 2,-2c0.707031,-0.707001 0.617004,-0.075989 1,-1c0.541016,-1.307007 2,-2 3,-3l4,-2l6,-7" id="svg_16" stroke-linecap="null" stroke-linejoin="null" stroke-dasharray="null" stroke-width="5" stroke="#000000" fill="none"/>
   <path d="m438,280c0,5 1,7 3,7c3,0 4.769989,-0.026978 5,-1c0.514008,-2.175995 1,-3 1,-5c0,-1 1.186005,-0.692993 3,-2c3.442017,-2.481018 7.742004,-6.326996 14,-11c8.667023,-6.472015 14.449982,-10.173004 22,-13c4.774994,-1.787994 10,-1 12,-1c1,0 1,1 1,2c0,1 0.122986,4.981018 1,11c1.162994,7.977997 1.664978,19.014008 1,35c-0.5,12.031006 -8.677979,31.776978 -12,43c-3.786987,12.792999 -6.39801,23.087006 -8,32c-1.458984,8.115997 -3.095001,13.97699 -4,18c-1.119019,4.975006 -1,8 -1,11c0,1 0,2 1,2l1,0l3,0" id="svg_17" stroke-linecap="null" stroke-linejoin="null" stroke-dasharray="null" stroke-width="5" stroke="#000000" fill="none"/>
   <path stroke="#000000" d="m511,365c3.448975,3.893005 2.22998,4.453003 3.448975,4.757996c1.218994,0.306 3.449036,0 5.173035,0c3.449036,0 4.919983,-0.074005 6.897949,-0.432007c3.129028,-0.565979 3.449036,-0.86499 6.89801,-0.86499c0,0 1.725037,0 3.449036,0c1.725037,0 3.449036,0 5.174011,0c1.723999,0 5.677979,-0.306 6.89801,0c1.218994,0.306 0,0.86499 1.723938,1.730011c3.449036,1.72998 15.376038,6.510986 31.041016,12.977997c27.340027,11.285004 59.129028,26.335999 75.878052,36.768982c12.440979,7.75 17.244934,13.843018 22.417969,19.033997l0,3.028015" id="svg_18" stroke-linecap="null" stroke-linejoin="null" stroke-dasharray="null" stroke-width="5" fill="none"/>
   <path d="m451,397c1,0 3.458984,-0.692993 4,-2c0.764984,-1.847992 0.518982,-3.039001 1,-6c0.507019,-3.121002 4.830017,-8.367004 11,-11c13.673004,-5.834991 27.21701,-9.315002 44,-15c13.192017,-4.468994 18.80603,-7.447998 23,-9c3.867004,-1.429993 4,-1 3,0c-1,1 -3.670959,3.497009 -8,6c-6.593018,3.812012 -13.130005,7.824005 -24,16c-9.112,6.854004 -16,14 -22,21l-2,3" id="svg_19" stroke-linecap="null" stroke-linejoin="null" stroke-dasharray="null" stroke-width="5" stroke="#000000" fill="none"/>
   <path d="m547,434c-1,2 -1.377991,0.963989 -1,-1c1.018005,-5.287994 9.619995,-15.437988 15,-22c6.858032,-8.36499 8.338013,-15.621002 14,-21c3.625,-3.444 10.095032,-6.876007 18,-13c5.062012,-3.92099 13.536987,-9.75 11,-13c-0.61499,-0.787994 -5,4 -8,6c-3,2 -6.5,8.479004 -18,20c-23.998962,24.042999 -75.511017,63.257996 -115,91c-52.699982,37.02301 -66.781006,48.390015 -79,55c-9.834015,5.31897 -14.292999,7.707031 -15,7c-0.707001,-0.70697 -0.082001,-4.057007 2,-7c2.888,-4.082031 16.963013,-22.013 59,-64c40.03598,-39.989014 80.044006,-66.552002 120,-102c12.695007,-11.261993 35.004028,-20.519012 31,-28c-2.406006,-4.496002 -12.826965,7.251007 -20,16c-4.572021,5.576996 -8.42804,13.423004 -13,19c-5.380005,6.562012 -15.979004,16.033997 -32,26c-20.971985,13.045013 -45.630981,27.984985 -62,30c-4.963013,0.610992 -7.503998,0.593994 -12,3c-1.247009,0.666992 0.300018,3.028992 7,1c13.802979,-4.178986 58.367004,-32.93399 123,-53c53.524963,-16.617004 119.166016,-35.610992 136,-43c15.156982,-6.653015 22,-10 21,-10c-4,0 -16.458984,6.244995 -30,15c-11.421997,7.38501 -19.609009,15.596008 -30,22c-12.56897,7.747009 -30.914978,14.389008 -53,19c-20.925964,4.369995 -35,4 -37,4c-2,0 -3.375,-1.414001 1,-5c5.576965,-4.571991 22.669006,-13.665985 69,-22c76.55304,-13.770996 148.968018,-24.246002 209,-32c23.987,-3.097992 45,-1 45,-5c0,-1 -5.070984,-1.061981 -13,0c-11.301025,1.513 -29.083984,6.658997 -50,12c-22.094971,5.641998 -48.004028,11.979004 -77,17c-46.005981,7.96701 -78,11 -123,11c-21,0 -41,0 -56,0c-13,0 -20.486023,0.175995 -21,-2c-0.230042,-0.972992 0,-3 0,-6c0,-2 3,-5 7,-8l17,-12l28,-20" id="svg_20" stroke-linecap="null" stroke-linejoin="null" stroke-dasharray="null" stroke-width="5" stroke="#000000" fill="none"/>
   <path d="m679,327c0,1 -3,4 -2,4c2,0 1.611023,-4.158997 3,-7c1.583984,-3.239014 12.454041,-21.367004 22,-35c33.153992,-47.347992 70.607971,-88.485001 101,-125c37.765991,-45.373398 66.205017,-83.870201 87,-117c13.130005,-20.9189 -107.617981,-16.164299 -131,-3c-55.60498,31.306602 -80.585999,52.430237 -92,63c-6.765015,6.264206 -10.486023,9.8237 -11,12c-0.230042,0.973206 0.414001,2.5858 -1,4c-0.70697,0.707092 -1.419006,1.4189 -3,3c-1.580994,1.5811 -2.148987,5.945801 -5,14c-2.111023,5.962006 -6,18 -9,28c-3,10 -5.277039,21.912506 -8,31c-4.457031,14.871002 -7.050964,26.278 -11,38c-2.43103,7.21701 -4.408997,15.029022 -5,21c-0.502014,5.074005 -1.880981,9.024994 -3,14c-0.904968,4.02301 -1,8 -1,14c0,2 -0.689026,5.535004 1,7c2.389038,2.072021 4.907959,2.496002 9,3c6.947998,0.85498 18,0 40,0c23,0 52,0 87,0c56,0 89.223999,-0.950989 129,-10c47.299011,-10.759979 54.596985,-12.641998 58,-19c1.416016,-2.644989 0.656006,-6.723999 -7,-13c-13.942017,-11.429016 -33,-27 -52,-42l-13,-8l-15,-9" id="svg_21" stroke-linecap="null" stroke-linejoin="null" stroke-dasharray="null" stroke-width="5" stroke="#000000" fill="none"/>
   <path d="m574,291c1,-1 3,-1 7,-1c6,0 14,0 22,0c12,0 24.176025,2.048004 36,0c14.64801,-2.536987 32.090027,-19.903015 59,-45c33.110962,-30.880997 70.987,-60.01619 95,-79c18.98999,-15.012802 27.28302,-19.985001 31,-26c1.663025,-2.690002 0,-3 -2,-3c-2,0 -5,0 -7,0c-2,0 -5,0 -9,0c-6,0 -20.054993,-1.408005 -38,0c-38.352966,3.009201 -81.934998,13.419205 -132,21c-34.95697,5.293091 -65,6 -86,6c-17,0 -24.151978,-0.765411 -26,0c-1.307007,0.541199 -1,2 -1,2l0,1" id="svg_22" stroke-linecap="null" stroke-linejoin="null" stroke-dasharray="null" stroke-width="5" stroke="#000000" fill="none"/>
   <line id="svg_32" y2="445" x2="294.000014" y1="450" x1="262.000014" stroke-linecap="null" stroke-linejoin="null" stroke-dasharray="null" stroke-width="5" stroke="#000000" fill="none"/>
   <polyline stroke="#000000" id="svg_23" points="559.7252197265625,180 558.7733154296875,180 530.2158813476562,180 500.7065734863281,180 480.71636962890625,180 467.38958740234375,180 455.96661376953125,180 452.1589660644531,180 448.351318359375,180 446.4474792480469,180 442.63983154296875,180 438.8321838378906,180 435.9764404296875,180 434.0726013183594,180 434.0726013183594,181 435.0245361328125,183 439.7840881347656,185 445.4955749511719,187 459.7742919921875,188 479.76446533203125,188 527.3601684570312,188 586.3787841796875,181 653.9646606445312,167 714.8871459960938,154 746.30029296875,144 767.2423706054688,138 775.8096313476562,133 781.5211181640625,130 784.3768310546875,128 779.6172485351562,128 775.8096313476562,128 769.146240234375,129 762.4828491210938,132 748.2041015625,134 745.348388671875,134 708.2237548828125,152 672.051025390625,168 617.7919311523438,192 554.0137329101562,217 518.7929077148438,229 490.2355041503906,239 473.10107421875,244 461.6781005859375,247 455.96661376953125,248 455.01470947265625,249 454.06280517578125,250 454.06280517578125,251 455.01470947265625,252 460.7261962890625,252 468.34149169921875,252 478.81256103515625,249 497.850830078125,242 525.456298828125,232 563.5328979492188,217 596.849853515625,205 649.205078125,184 663.4838256835938,178 677.7625122070312,172 685.3778076171875,167 684.4259033203125,166 682.5220947265625,166 675.8587036132812,169 664.4357299804688,175 658.7242431640625,180 646.349365234375,188 632.0706787109375,196 614.9362182617188,206 587.3306884765625,221 559.7252197265625,235 536.8792724609375,246 517.8410034179688,254 504.51422119140625,261 494.0431823730469,265 488.3316955566406,268 487.3797912597656,269 487.3797912597656,270 487.3797912597656,270 487.3797912597656,271 488.3316955566406,272 492.13934326171875,272 498.802734375,272 515.9371948242188,269 547.350341796875,265 588.2826538085938,260 636.8302001953125,256 673.954833984375,251 705.3679809570312,249 736.7811279296875,246 743.444580078125,246 750.1079711914062,246 748.2041015625,247 739.6369018554688,251 726.3101196289062,258 718.69482421875,265 710.1275634765625,275 702.5122680664062,284 691.0892944335938,296 684.4259033203125,302 673.0029296875,309 663.4838256835938,315 655.8684692382812,317 647.30126953125,321 642.5416870117188,322 640.6378784179688,322 639.6859741210938,323 641.5897827148438,323 642.5416870117188,323 647.30126953125,323 653.0127563476562,323 666.3395385742188,323 696.80078125,321 734.8773193359375,312 799.6074829101562,290 853.8665161132812,264 871.0009765625,254 878.6162719726562,248 890.0392456054688,242 892.89501953125,239 893.846923828125,236 893.846923828125,235 886.2316284179688,233 870.049072265625,233 857.6741943359375,233 841.4916381835938,233 827.2129516601562,235 815.7899780273438,241 807.2227783203125,246 800.5593872070312,250 791.0402221679688,257 775.8096313476562,265 744.396484375,276 707.2718505859375,286 672.051025390625,292 632.0706787109375,299 600.6575317382812,303 583.5230712890625,304 563.5328979492188,306 548.30224609375,307 535.9273681640625,308 523.552490234375,309 517.8410034179688,309 513.0814208984375,309 507.36993408203125,309 508.3218994140625,309 513.0814208984375,309 522.6005859375,309 551.1580200195312,309 591.1383666992188,304 667.2914428710938,289 747.252197265625,264 834.8282470703125,226 892.89501953125,207 937.6349487304688,195 938.5868530273438,195 891.9430541992188,195 842.4435424804688,195 788.1845092773438,195 735.8292236328125,197 688.2335815429688,208 647.30126953125,224 621.599609375,234 602.5613403320312,241 586.3787841796875,247 560.6771240234375,256 613.9843139648438,250 645.3974609375,240 709.1756591796875,216 767.2423706054688,195 849.1069946289062,172 923.356201171875,160 960.4808349609375,118 925.2600708007812,102 875.7605590820312,89 817.6937866210938,77 753.9155883789062,70 693.945068359375,65 655.8684692382812,64 627.3110961914062,63 608.2728271484375,63 594.946044921875,62 589.2345581054688,62 587.3306884765625,62 587.3306884765625,63 586.3787841796875,63 585.4268798828125,65 584.4749755859375,66 573.052001953125,68 742.4926147460938,69 771.050048828125,69 818.645751953125,73 858.6260986328125,76 888.1354370117188,79 934.7791748046875,82 956.6732177734375,84 970,85 959.5289306640625,93 928.1157836914062,104 893.846923828125,114 852.9146118164062,130 810.0784912109375,145 767.2423706054688,159 708.2237548828125,179 679.6663208007812,191 673.954833984375,198 676.8106079101562,214 728.2139282226562,301 737.7330932617188,323 745.348388671875,346 747.252197265625,365 747.252197265625,386 746.30029296875,398 742.4926147460938,414 740.5888061523438,424 739.6369018554688,432 739.6369018554688,436 738.6849975585938,438 738.6849975585938,440 736.7811279296875,445 733.9254150390625,458 728.2139282226562,493 724.40625,522 722.50244140625,535 721.550537109375,536 720.5986328125,537 714.8871459960938,542 707.2718505859375,548 694.89697265625,557 673.0029296875,572 647.30126953125,589 618.7438354492188,609 596.849853515625,623 572.10009765625,638 548.30224609375,650 529.2639770507812,662 517.8410034179688,670 507.36993408203125,677 499.7546691894531,685 497.850830078125,687 494.9950866699219,690 484.5240478515625,695 472.149169921875,700 448.351318359375,709 0,712 6.663395881652832,712 15.230618476867676,712 25.70166778564453,712 58.066734313964844,714 87.57605743408203,721 85.67223358154297,720 83.76840209960938,719 81.86457824707031,718 81.86457824707031,717 80.91265869140625,717 80.91265869140625,717 78.05692291259766,717 75.20117950439453,717 63.77821350097656,718 517.8410034179688,721 516.8890991210938,714 516.8890991210938,706 515.9371948242188,697 514.0333862304688,685 514.0333862304688,681 513.0814208984375,675 513.0814208984375,671 513.0814208984375,669 513.0814208984375,667 513.0814208984375,666 513.0814208984375,667 513.0814208984375,667 513.0814208984375,668 513.0814208984375,669 500.7065734863281,684 492.13934326171875,692 488.3316955566406,699 485.4759521484375,702 484.5240478515625,703 484.5240478515625,704 484.5240478515625,706 484.5240478515625,709 484.5240478515625,711 477.8606262207031,720 455.96661376953125,721 455.96661376953125,720 455.96661376953125,719 459.7742919921875,713 460.7261962890625,710 461.6781005859375,706 462.6300354003906,702 464.5338439941406,694 465.4857482910156,691 465.4857482910156,688 466.43768310546875,686 466.43768310546875,687 466.43768310546875,688 466.43768310546875,689 466.43768310546875,690 466.43768310546875,693 465.4857482910156,694 465.4857482910156,697 463.5819396972656,699 461.6781005859375,700 459.7742919921875,702 457.8704528808594,704 454.06280517578125,709 449.30322265625,713 448.351318359375,716 446.4474792480469,719 444.5436706542969,720 313.1795654296875,719 325.554443359375,715 336.9774169921875,711 349.352294921875,707 376.0058898925781,695 384.5730895996094,690 403.61138916015625,677 428.36114501953125,658 443.59173583984375,644 455.01470947265625,629 464.5338439941406,619 469.2934265136719,613 472.149169921875,609 473.10107421875,605 475.0049133300781,601 479.76446533203125,592 488.3316955566406,576 497.850830078125,560 503.56231689453125,551 506.41802978515625,543 507.36993408203125,535 509.2738037109375,526 513.0814208984375,515 514.9852905273438,507 516.8890991210938,501 517.8410034179688,495 519.7448120117188,488 520.69677734375,484 521.648681640625,479 523.552490234375,471 525.456298828125,460 528.3120727539062,451 529.2639770507812,445 531.1677856445312,445 531.1677856445312,445 531.1677856445312,447 532.1196899414062,446 532.1196899414062,444 532.1196899414062,443 532.1196899414062,443 532.1196899414062,441 534.9754638671875,433 536.8792724609375,427 538.7831420898438,423 540.6869506835938,420 543.5426635742188,418 544.4945678710938,416 546.3984375,416 546.3984375,417 542.5907592773438,424 539.7350463867188,431 533.0716552734375,456 529.2639770507812,472 524.50439453125,485 521.648681640625,498 518.7929077148438,512 517.8410034179688,519 517.8410034179688,521 519.7448120117188,521 526.4082641601562,522 564.4848022460938,510 651.1089477539062,457 704.4160766601562,403 715.8390502929688,385 715.8390502929688,382 710.1275634765625,391 704.4160766601562,400 700.6084594726562,405 693.945068359375,408 660.6280517578125,420 598.753662109375,445 550.2060546875,468 528.3120727539062,482 521.648681640625,488 521.648681640625,489 523.552490234375,488 527.3601684570312,486 531.1677856445312,483 535.9273681640625,477 551.1580200195312,462 556.8694458007812,457 562.5809326171875,450 563.5328979492188,449 563.5328979492188,450 560.6771240234375,454 556.8694458007812,461 546.3984375,473 536.8792724609375,488 529.2639770507812,498 526.4082641601562,506 526.4082641601562,509 526.4082641601562,509 527.3601684570312,509 528.3120727539062,509 529.2639770507812,509 529.2639770507812,510 529.2639770507812,511 528.3120727539062,514 523.552490234375,522 515.9371948242188,536 507.36993408203125,549 501.6584777832031,559 495.9469909667969,564 494.0431823730469,567 491.18743896484375,568 490.2355041503906,569 489.2835998535156,569 489.2835998535156,568 489.2835998535156,566 489.2835998535156,562 490.2355041503906,557 499.7546691894531,541 545.446533203125,496 583.5230712890625,463 609.2247314453125,446 623.50341796875,437 626.3591918945312,436 620.647705078125,438 610.1766357421875,444 530.2158813476562,482 488.3316955566406,496 437.8802795410156,517 392.18841552734375,541 389.3326721191406,542 395.0441589355469,542 399.8037109375,541 431.21685791015625,538 475.0049133300781,535 529.2639770507812,529 589.2345581054688,520 648.253173828125,508 667.2914428710938,502 667.2914428710938,500 655.8684692382812,500 624.455322265625,507 589.2345581054688,518 558.7733154296875,528 533.0716552734375,536 520.69677734375,539 517.8410034179688,539 517.8410034179688,538 522.6005859375,532 533.0716552734375,522 578.7634887695312,488 667.2914428710938,429 712.9833374023438,399 724.40625,388 723.454345703125,387 713.9352416992188,395 707.2718505859375,403 701.5603637695312,408 697.752685546875,412 691.0892944335938,418 682.5220947265625,428 669.1953125,441 651.1089477539062,457 633.9744873046875,473 614.9362182617188,490 603.5132446289062,501 599.70556640625,506 596.849853515625,508 " opacity="0.5" stroke-linecap="round" stroke-linejoin="null" stroke-dasharray="null" stroke-width="5" fill="none"/>
   <path d="m601,518c0,1 -0.459961,-0.052979 0,-2c0.513977,-2.176025 1,-4 1,-10l0,-5l-1,-10" id="svg_24" stroke-linecap="null" stroke-linejoin="null" stroke-dasharray="null" stroke-width="5" stroke="#000000" fill="#00ff00"/>
   <path d="m359,247c1,-2 3.763,-2.287018 14,-14c17.372986,-19.878998 22.013,-34.399002 38,-55c13.445984,-17.326691 19,-22 22,-24l-6,-1" id="svg_25" stroke-linecap="null" stroke-linejoin="null" stroke-dasharray="null" stroke-width="5" stroke="#000000" fill="#ff0000"/>
   <path d="m381,140c0,1 0,2 0,6c0,3 0,9 0,20c0,7 0,16 0,23c0,9 0.218018,17.003006 0,24c-0.5,16.022995 -1,21 -1,26c0,4 0,7 0,10c0,1 -0.292999,2.707001 -1,2c-0.707001,-0.707001 0.230011,-2.026978 0,-3c-0.514008,-2.175995 -0.518982,-4.039001 -1,-7c-0.507019,-3.121002 -1.492981,-7.878998 -2,-11c-0.481018,-2.960999 -1,-8 -1,-14c0,-6 0.774994,-11.169006 -2,-22c-0.785004,-3.063293 -1,-4 -1,-2c0,4 0,10 0,15c0,5 0,9 0,12c0,2 0,4 0,9c0,5 0,13 -1,23c-1,10 -1,16 -1,23c0,3 0.273987,2.11499 1,0c1.654999,-4.822998 2,-11 2,-16l0,-5" id="svg_26" stroke-linecap="null" stroke-linejoin="null" stroke-dasharray="null" stroke-width="5" stroke="#ff0000" fill="none"/>
   <path d="m419,200c1,1 0.710022,4.042999 1,5c1.044983,3.450989 4.432983,8.802002 7,15c2.419983,5.843002 3.475006,10.862 5,17c1.466003,5.902985 2.492981,10.878998 3,14c0.320007,1.973999 0,4 0,5c0,1 0,1 -1,2c-1,1 -1.458984,1.692993 -2,3c-0.382996,0.924011 -1,2 -1,2c0,1 -2.151978,0.234985 -4,1c-1.307007,0.541016 -2,1 -3,1c-1,0 -2,0 -3,0c-1,0 -2,0 -3,-1c-1,-1 -1.824005,-2.485992 -4,-3c-0.973022,-0.230011 -1.692993,-1.186005 -3,-3c-1.653992,-2.294983 -2.796997,-2.257019 -4,-3c-2.690002,-1.662994 -4.944,-1.187988 -8,-2c-4.927979,-1.309021 -9.981018,-2.123016 -16,-3c-7.977997,-1.162994 -14.132996,-0.570007 -18,-2c-4.194,-1.552002 -7,-3 -9,-4c-2,-1 -2,-2 -3,-2l1,0l1,1l1,2" id="svg_27" stroke-linecap="null" stroke-linejoin="null" stroke-dasharray="null" stroke-width="5" stroke="#000000" fill="#ff7f00"/>
   <line id="svg_28" y2="397" x2="341.000014" y1="391" x1="354.000014" stroke-linecap="null" stroke-linejoin="null" stroke-dasharray="null" stroke-width="5" stroke="#000000" fill="none"/>
   <line id="svg_29" y2="402" x2="284.000014" y1="395" x1="288.000014" stroke-linecap="null" stroke-linejoin="null" stroke-dasharray="null" stroke-width="5" stroke="#000000" fill="none"/>
   <line id="svg_30" y2="346" x2="298.000014" y1="413" x1="300.000014" stroke-linecap="null" stroke-linejoin="null" stroke-dasharray="null" stroke-width="5" stroke="#000000" fill="none"/>
   <line id="svg_31" y2="439" x2="264.000014" y1="438" x1="263.000014" stroke-linecap="null" stroke-linejoin="null" stroke-dasharray="null" stroke-width="5" stroke="#000000" fill="none"/>
   <rect id="svg_33" height="64" width="72" y="350" x="388.000014" stroke-linecap="round" stroke-linejoin="null" stroke-dasharray="null" stroke-width="5" stroke="#000000" fill="#ff0000"/>
   <ellipse stroke="#000000" ry="48.681817" rx="25.499999" id="svg_34" cy="441.318183" cx="316.500015" stroke-linecap="round" stroke-linejoin="null" stroke-dasharray="null" stroke-width="5" fill="#ff0000"/>
   <ellipse stroke="#000000" ry="45.317415" rx="36.499999" id="svg_35" cy="385.682585" cx="549.500015" stroke-linecap="round" stroke-linejoin="null" stroke-dasharray="null" stroke-width="5" fill="#ff7f00"/>
   <path id="svg_36" d="m804,460c40,-53 81,108 23,64c-58,-44 -30,-20 -57,7c-27,27 -116,-51 -141,3c-25,54 230,-90 226,-92c-4,-2 -141,54 -141,54c0,0 169,-95 80,-28c-89,67 -98,-36 -112,19c-14,55 10,-65 -8,-25c-18,40 21,15 21,17c0,2 -51,-2 -51,-3c0,-1 -123,147 -123,147c0,0 -98,60 -98,60c0,0 -39,23 -39,23c0,0 -78,-30 -78,-30c0,0 -37,0 -37,0" stroke-linecap="round" stroke-linejoin="null" stroke-dasharray="null" stroke-width="5" stroke="#000000" fill="none"/>
   <path id="svg_37" d="m858,366c26,56 26,54 25,55c-1,1 -22,24 -22,24" stroke-linecap="round" stroke-linejoin="null" stroke-dasharray="null" stroke-width="5" stroke="#000000" fill="none"/>
   <path id="svg_38" d="m851,367c8,82 8,82 8,81c0,-1 -571,322 -571,322c0,0 -45.999985,52 -45.999985,52c0,0 -131,-61 -131,-61c0,0 -70,8 -70,8c0,0 115,50 115,50" stroke-linecap="round" stroke-linejoin="null" stroke-dasharray="null" stroke-width="5" stroke="#000000" fill="none"/>
   <ellipse opacity="0.25" ry="342" rx="342" id="svg_39" cy="342" cx="582.000014" stroke-linecap="round" stroke-linejoin="null" stroke-dasharray="5,2,2,2,2,2" stroke-width="25" stroke="#ff0000" fill="#ff7f00"/>
   <ellipse ry="272" rx="272" id="svg_41" cy="336" cx="584.000014" opacity="0.25" stroke-linecap="round" stroke-linejoin="null" stroke-dasharray="5,2,2,2,2,2" stroke-width="25" stroke="#ff7f00" fill="#ff0000"/>
   <ellipse ry="240" rx="240" id="svg_43" cy="348" cx="586.000014" opacity="0.25" stroke-linecap="round" stroke-linejoin="null" stroke-dasharray="5,2,2,2,2,2" stroke-width="25" stroke="#0000ff" fill="#7fff00"/>
   <ellipse ry="108" rx="108" id="svg_45" cy="342" cx="578.000014" opacity="0.25" stroke-linecap="round" stroke-linejoin="null" stroke-dasharray="5,2,2,2,2,2" stroke-width="25" stroke="#7fff00" fill="#ff00ff"/>
  </g>
 </g>
</svg>