<?xml version="1.0" encoding="UTF-8" standalone="no"?>
<!-- Generator: Adobe Illustrator 12.0.1, SVG Export Plug-In  -->

<svg
   xmlns:dc="http://purl.org/dc/elements/1.1/"
   xmlns:cc="http://creativecommons.org/ns#"
   xmlns:rdf="http://www.w3.org/1999/02/22-rdf-syntax-ns#"
   xmlns:svg="http://www.w3.org/2000/svg"
   xmlns="http://www.w3.org/2000/svg"
   xmlns:sodipodi="http://sodipodi.sourceforge.net/DTD/sodipodi-0.dtd"
   xmlns:inkscape="http://www.inkscape.org/namespaces/inkscape"
   version="1.1"
   width="121.97656"
   height="121.95782"
   viewBox="-1 0 121.97654 121.9578"
   enable-background="new -1 0 292 291"
   xml:space="preserve"
   id="svg2"
   inkscape:version="0.48.2 r9819"
   sodipodi:docname="Australia W5-22.svg"><metadata
   id="metadata24"><rdf:RDF><cc:Work
       rdf:about=""><dc:format>image/svg+xml</dc:format><dc:type
         rdf:resource="http://purl.org/dc/dcmitype/StillImage" /><dc:title></dc:title></cc:Work></rdf:RDF></metadata><sodipodi:namedview
   pagecolor="#ffffff"
   bordercolor="#666666"
   borderopacity="1"
   objecttolerance="10"
   gridtolerance="10"
   guidetolerance="10"
   inkscape:pageopacity="0"
   inkscape:pageshadow="2"
   inkscape:window-width="1280"
   inkscape:window-height="1004"
   id="namedview22"
   showgrid="false"
   fit-margin-top="0"
   fit-margin-left="0"
   fit-margin-right="0"
   fit-margin-bottom="0"
   inkscape:zoom="4.5876893"
   inkscape:cx="54.268983"
   inkscape:cy="58.808513"
   inkscape:window-x="-8"
   inkscape:window-y="-8"
   inkscape:window-maximized="1"
   inkscape:current-layer="svg2" />
<defs
   id="defs4">
</defs>





<polygon
   points="168.102,239.552 121.914,239.552 89.25,206.885 89.25,160.661 121.914,127.982 168.102,127.982 200.801,160.661 200.801,206.885 "
   id="polygon16"
   style="fill:none;stroke:none"
   transform="matrix(1.1719259,0,0,1.1719259,201.1159,493.60639)" />


<path
   d="M 0.74468479,65.216247 55.774674,120.24124 c 2.290003,2.28875 6.105004,2.28875 8.432504,0 L 119.23092,65.216247 c 2.3275,-2.32625 2.3275,-6.142499 0,-8.474999 L 64.207178,1.7175 c -2.3275,-2.29 -6.142501,-2.29 -8.432504,0 L 0.74468479,56.741248 c -2.32624999,2.3325 -2.32624999,6.148749 0,8.474999"
   style="fill:#fee011;fill-opacity:1;fill-rule:evenodd;stroke:none"
   id="path3717"
   inkscape:connector-curvature="0" /><path
   d="m 56.574674,119.28749 c 1.982503,1.60625 4.351253,1.9875 6.407503,0.345 l 0.42375,-0.3075 54.951243,-54.987493 c 1.9075,-2.2525 1.9075,-4.58 0,-6.832499 L 63.405927,2.5175 c -1.83375,-1.48875 -3.9325,-1.945 -6.031253,-0.60875 l -0.38125,0.3075 -0.41875,0.30125 -54.9499892,54.987498 c -1.90875001,2.252499 -1.90875001,4.542499 0,6.794999 L 56.574674,119.28749"
   style="fill:#000000;fill-opacity:1;fill-rule:evenodd;stroke:none"
   id="path3721"
   inkscape:connector-curvature="0" /><path
   d="m 60.618428,118.33249 c 0.41875,-0.11125 0.61,-0.265 0.99125,-0.535 L 116.55967,62.846247 c 1.07125,-1.335 1.07125,-2.32625 0,-3.661249 L 61.609678,4.23375 c -1.065,-0.8 -2.1725,-0.7625 -3.20625,0.0375 L 3.4159348,59.221248 c -1.02875,1.298749 -1.02875,2.289999 0,3.588749 L 58.403428,117.75999 c 0.72625,0.61 1.2975,0.68875 2.215,0.5725"
   style="fill:#fee011;fill-opacity:1;fill-rule:evenodd;stroke:none"
   id="path3725"
   inkscape:connector-curvature="0" /><path
   d="m 12.764684,55.522498 c 9.34875,15.836248 21.83125,-0.3075 30.94625,-10.801249 9.08499,-10.493749 20.606244,-9.996249 27.973743,1.79625 1.9075,3.1275 5.034999,4.653749 7.176249,4.272499 2.1725,-0.41875 1.82875,-1.908749 4.11875,-2.289999 -2.7825,-1.335 -5.115,-2.63375 -5.76125,-4.77 2.06125,-0.19125 5.035,0.95375 7.668749,3.625 0.38125,-0.15375 0.572499,-0.535 0.8425,-0.265 1.065,1.065 6.445,3.508749 8.506249,6.142499 0.22875,0.3075 -0.07375,1.29875 -0.41875,1.33625 -1.833749,0.19 -3.814999,0 -5.648749,0.38125 -1.06625,0.07375 -1.90875,0.2275 -2.93625,0.265 -1.108749,1.1875 -1.90875,2.67125 -3.3975,3.24375 -1.409999,0.953749 -1.871249,2.214999 -2.824999,3.624999 -0.99125,1.4525 -2.7825,2.3325 -4.727499,2.44375 -1.568751,2.40625 -3.132501,5.231249 -4.69625,7.631249 -0.49875,0.8425 -1.4525,1.26125 -2.09875,1.07125 -0.345,-0.08 -0.76375,-0.41875 -1.02875,-0.88 -0.27,-0.4925 -0.381249,-1.1825 -0.116251,-2.09875 0.726251,0.5725 0.535,1.7175 1.79125,1.4525 0.461251,-2.5975 0.917501,-5.914999 1.336251,-8.548749 -1.065,-0.15375 -2.13625,-0.76375 -3.20125,-0.9175 -1.033749,1.33625 -1.87125,2.63375 -2.904999,3.97 0.382499,4.351249 0.27,12.438748 1.83375,13.048748 4.998749,2.06125 10.568748,3.5875 16.446248,5.04 0.534999,-0.0375 1.071249,-0.11625 1.6425,-0.15375 0.572499,0.5725 1.373748,0.95375 1.792498,1.79125 -0.3025,0 -0.6475,0 -0.954999,0 -0.15375,0.27 -0.265,0.535 -0.34375,0.80625 -1.7175,0.264999 -3.3925,-0.08 -5.072499,-0.955 -5.04,-0.87875 -9.921249,-1.79625 -14.961249,-2.48 -1.5275,-0.19125 -2.09875,-1.68 -2.5925,-3.5875 -1.56375,-5.496249 -3.705003,-10.303749 -5.993753,-14.538748 -4.77,-1.48875 -8.69749,-6.068749 -11.78749,-8.856249 -10.30375,6.068749 -25.68375,15.873748 -30.6075,-0.8 z"
   style="fill:#000000;fill-opacity:1;fill-rule:evenodd;stroke:none"
   id="path3729"
   inkscape:connector-curvature="0" /></svg>