<?xml version="1.0" encoding="utf-8"?>
<!DOCTYPE svg PUBLIC "-//W3C//DTD SVG 1.1//EN" 
  "http://www.w3.org/Graphics/SVG/1.1/DTD/svg11.dtd">

<!-- Dharmafly <http://dharmafly.com> -->
<svg width="129" height="172" xmlns="http://www.w3.org/2000/svg" xmlns:xlink="http://www.w3.org/1999/xlink" viewBox="0 0 129 172">
  <g class="logo" fill="#8EC045">
  <title>Dharmafly</title>
   <path class="background" d="m45.163,0c-13.328,0 -28.1,1.714 -44.918,1.714l-0.245,137.497c0.548,-4.282 1.274,-8.5 2.341,-12.759c9.107,-36.23599 29.669,-58.439 54.899,-71.221l2.8,-1.457c10.668,-5.416 13.472,-8.389 17.774,-13.619c-0.391,-0.445 -0.867,-0.728 -1.164,-1.19c-3.051,-4.571 -1.784,-10.684 2.725,-13.705c4.549,-2.998 10.66,-1.785 13.64999,2.778c3.052,4.525 1.759,10.684 -2.709,13.674c-2.37,1.573 -5.15099,1.918 -7.71899,1.309c-4.783,5.847 -7.977,9.542 -20.054,15.662l-2.771,1.464c-20.835,10.55101 -39.052,28.45601 -48.993,57.978c1.392,-1.17599 2.76,-2.42799 4.389,-3.272l11.453,-6.24801c4.76,-2.582 8.367,-6.59799 10.557,-11.56c-0.207,-0.25 -0.467,-0.47099 -0.623,-0.776c-1.566,-2.86299 -0.5,-6.48799 2.387,-8.03899c2.826,-1.55 6.44,-0.48401 7.984,2.38c1.566,2.873 0.5,6.465 -2.373,8.021c-1.062,0.627 -2.26,0.69 -3.388,0.61101c-2.606,5.697 -6.765,10.40999 -12.391,13.424l-11.391,6.20599c-4.282,2.27801 -7.692,5.77701 -9.948,10.013c-0.719,2.94901 -1.369,5.979 -1.807,8.96899c5.761,-5.644 12.672,-10.03499 20.367,-12.79699l27.709,-10.371c10.285,-3.66399 18.974,-10.68499 24.92,-19.631c-0.828,-0.933 -1.492,-1.98 -1.924,-3.232c-1.854,-5.12 0.77399,-10.786 5.946,-12.643c5.091,-1.824 10.764,0.831 12.609,5.911c1.842,5.134 -0.854,10.83299 -5.939,12.67099c-1.963,0.69 -4.022,0.54701 -5.901,0.041c-6.59,10.08801 -16.396,17.933 -27.826,22.056l-27.703,10.37201c-9.266,3.342 -17.234,9.19699 -23.098,16.94699c-0.18,3.914 0,10.59 0.347,14.52501c2.818,-2.457 6.009,-4.47701 9.704,-5.54901l17.998,-4.907c3.581,-1.04199 6.59,-3.116 9.15601,-5.739c-0.72701,-0.97 -1.34,-2.043 -1.68401,-3.271c-1.47099,-5.244 1.636,-10.685 6.80901,-12.179c5.262,-1.472 10.686,1.588 12.212,6.841c1.464,5.196 -1.649,10.66699 -6.87,12.13199c-2.045,0.58701 -4.042,0.32901 -5.904,-0.36699c-3.332,3.69299 -7.436,6.51999 -12.303,7.89099l-17.932,4.93001c-4.023,1.12799 -7.58,3.476 -10.277,6.685c14.172,0.69 24.146,3.27299 38.048,3.27299c45.364,0 83.19801,-23.953 83.28201,-86.36799c0.138,-61.18501 -35.347,-85.075 -82.21101,-85.075z"/>
   <g class="nodewing">
	<path class="stalks" stroke="#FFFFFF" stroke-width="0.5" fill="#FFFFFF" d="m0,139.211c0.548,-4.282 1.274,-8.5 2.341,-12.759c9.107,-36.23599 29.669,-58.439 54.899,-71.221l2.8,-1.457c10.668,-5.416 13.472,-8.389 17.774,-13.619c-0.391,-0.445 -0.867,-0.728 -1.164,-1.19c-3.051,-4.571 -1.784,-10.684 2.725,-13.705c4.549,-2.998 10.66,-1.785 13.64999,2.778c3.052,4.525 1.759,10.684 -2.709,13.674c-2.37,1.573 -5.15099,1.918 -7.71899,1.309c-4.783,5.847 -7.977,9.542 -20.054,15.662l-2.771,1.464c-20.835,10.55101 -39.052,28.45601 -48.993,57.978c1.392,-1.17599 2.76,-2.42799 4.389,-3.272l11.453,-6.24801c4.76,-2.582 8.367,-6.59799 10.557,-11.56c-0.207,-0.25 -0.467,-0.47099 -0.623,-0.776c-1.566,-2.86299 -0.5,-6.48799 2.387,-8.03899c2.826,-1.55 6.44,-0.48401 7.984,2.38c1.566,2.873 0.5,6.465 -2.373,8.021c-1.062,0.627 -2.26,0.69 -3.388,0.61101c-2.606,5.697 -6.765,10.40999 -12.391,13.424l-11.391,6.20599c-4.282,2.27801 -7.692,5.77701 -9.948,10.013c-0.719,2.94901 -1.369,5.979 -1.807,8.96899c5.761,-5.644 12.672,-10.03499 20.367,-12.79699l27.709,-10.371c10.285,-3.66399 18.974,-10.68499 24.92,-19.631c-0.828,-0.933 -1.492,-1.98 -1.924,-3.232c-1.854,-5.12 0.77399,-10.786 5.946,-12.643c5.09,-1.824 10.764,0.831 12.609,5.911c1.842,5.134 -0.854,10.83299 -5.939,12.67099c-1.963,0.69 -4.022,0.54701 -5.901,0.041c-6.59,10.08801 -16.396,17.933 -27.826,22.056l-27.703,10.37201c-9.266,3.342 -17.234,9.19699 -23.098,16.94699c-0.18,3.914 0,10.59 0.347,14.52501c2.818,-2.457 6.009,-4.47701 9.704,-5.54901l17.998,-4.907c3.581,-1.04199 6.59,-3.116 9.15601,-5.739c-0.72701,-0.97 -1.34,-2.043 -1.68401,-3.271c-1.47099,-5.244 1.636,-10.685 6.80901,-12.179c5.262,-1.47101 10.686,1.588 12.212,6.841c1.464,5.196 -1.649,10.66699 -6.87,12.13199c-2.045,0.58701 -4.042,0.32901 -5.904,-0.36699c-3.332,3.69299 -7.436,6.51999 -12.303,7.89099l-17.932,4.93001c-4.023,1.12799 -7.58,3.476 -10.277,6.685"/>
   	<defs>
		<symbol id="df-hole">
			<path class="hole" d="m7.86666,9.25472c2.354,-1.517 2.95701,-4.664 1.385,-6.99c-1.516,-2.356 -4.648,-2.966 -6.988,-1.393c-2.325,1.519 -2.969,4.642 -1.416,6.966c1.522,2.349 4.664,2.975 7.019,1.417z"/>
		</symbol>
	</defs>
	<use xlink:href="#df-hole" x="79.8" y="28.4"/>
	<use xlink:href="#df-hole" x="81" y="83.5"/>
	<use xlink:href="#df-hole" x="44.75" y="134.5"/>
   </g>
  </g>
</svg>