<svg xmlns="http://www.w3.org/2000/svg" width="502.237" height="130.428"><g transform="matrix(0 .791 -.791 0 747.796 -102.256)"><path d="m231.406 942.903v-9.5l5.536-.729v-5.771c.494-2.494-.512-6.988 6.732-6.732v24.482h-5.384l.116-1.75h-7z" fill="#cdcdcd" fill-rule="evenodd" stroke="#000" stroke-width="2"/><path d="m192.174 942.903v-9.5l-5.536-.729v-5.771c-.494-2.494.512-6.988-6.732-6.732v24.482h5.384l-.116-1.75h7z" fill="#cdcdcd" fill-rule="evenodd" stroke="#000" stroke-width="2"/><path d="m174.206 765.645l-37.477 60.811-6.364 117.38h26.87l17.799-16.385h11.572l.25-14.728 11.391-67.175-24.042-79.903z" fill="#afafaf" fill-rule="evenodd" stroke="#000" stroke-width="2"/><path d="m249.347 765.645l37.477 60.811 6.364 117.38h-26.87l-17.799-16.385h-11.572l-.25-14.728-11.391-67.175 24.042-79.903z" fill="#afafaf" fill-rule="evenodd" stroke="#000" stroke-width="2"/><path d="m236.764 912.403v8.75h-49.975v-8.75c-7-34-13-148-13-148l-2-184c-3-105 40-266 40-266s42.975 161 39.975 266l-2 184s-6 114-13 148z" fill="#cdcdcd" fill-rule="evenodd"/><path d="m143.827 943.836v-19.095h-12.426l-1.035 19.095h13.461z" fill="#cdcdcd" fill-rule="evenodd" stroke="#000" stroke-width="2"/><path d="m148.423 943.836h8.813l15.039-13.965-4.053-15.38-19.799 25.456v3.889z" fill="#cdcdcd" fill-rule="evenodd" stroke="#000" stroke-width="2"/><path d="m279.726 943.836v-19.095h12.426l1.035 19.095h-13.461z" fill="#cdcdcd" fill-rule="evenodd" stroke="#000" stroke-width="2"/><path d="m275.13 943.836h-8.813l-15.039-13.965 4.053-15.38 19.799 25.456v3.889z" fill="#cdcdcd" fill-rule="evenodd" stroke="#000" stroke-width="2"/><path overflow="visible" d="m220.845 803.198l-6.375-2.625-1.421 3.33 6.433 2.517 9.53 3.131c4.47 1.244-1.59 10.702-1.067 10.884l3.224 1.411s6.968-12.272.681-14.795l-11.005-3.852z" fill="#afafaf" stroke="#000" stroke-width="2" stroke-dashoffset="7.6"/><path overflow="visible" d="m212.72 803.198l-6.375-2.625-1.421 3.33 6.433 2.517 9.53 3.131c4.47 1.244-1.59 10.702-1.067 10.884l3.224 1.411s6.968-12.272.681-14.795l-11.005-3.852z" fill="#afafaf" stroke="#000" stroke-width="2" stroke-dashoffset="7.6"/><rect overflow="visible" ry="6.187" rx="3.536" y="759.334" x="184.797" height="6.896" width="33.797" fill="#9f9eca" stroke="#000" stroke-width="2" stroke-dashoffset="7.6"/><path overflow="visible" d="m184.675 803.057h54.255l-2.22 46.405 4.414.212 4.658-97.13-4.414-.212h-59.127l-4.414.212 4.658 97.13 4.414-.212-2.226-46.405zm54.442-3.895h-54.605l-2.062-42.51h58.701l-2.034 42.51z" fill="#afaf9b" stroke="#000" stroke-width="2" stroke-dashoffset="7.6"/><rect overflow="visible" ry="4.25" rx="3.475" y="774.893" x="223.81" height="20.506" width="13.435" fill="#8888a3" stroke="#000" stroke-width="2" stroke-dashoffset="7.6"/><rect overflow="visible" ry="6.187" rx="3.536" y="766.395" x="184.797" height="6.896" width="33.797" fill="#9f9eca" stroke="#000" stroke-width="2" stroke-dashoffset="7.6"/><path overflow="visible" d="M246.049 762.47" opacity=".99" fill="#474747" stroke="#000" stroke-width="2.001" stroke-dashoffset="7.6"/><rect overflow="visible" ry="6.187" rx="3.536" y="773.334" x="184.797" height="6.896" width="33.797" fill="#9f9eca" stroke="#000" stroke-width="2" stroke-dashoffset="7.6"/><path overflow="visible" d="m206.241 747.343l2.718.062h5.524c.914-.01 1.82-.03 2.718-.062 1.796-.063 3.556-.171 5.27-.33 3.427-.318 6.667-.839 9.625-1.609 5.917-1.542 10.708-4.083 13.625-8v-107.992c-5.833-7.833-19.167-10.167-34-10-14.833-.167-28.167 2.167-34 10v107.992c2.917 3.917 7.708 6.458 13.625 8 2.958.771 6.198 1.292 9.625 1.609v22.141h5.27v-21.811z" fill="#afafc3" stroke="#000" stroke-width="2" stroke-dashoffset="7.6"/><path overflow="visible" d="m217.202 613.343l-2.718.062h-5.524c-.914-.01-1.82-.03-2.718-.062-1.796-.063-3.556-.171-5.27-.33-3.427-.318-6.667-.839-9.625-1.609-5.917-1.542-12.708-4.083-15.625-8l7-121.992c5.833-7.833 14.167-10.167 29-10 14.833-.167 23.167 2.167 29 10l7 121.992c-2.917 3.917-9.708 6.458-15.625 8-2.958.771-6.198 1.292-9.625 1.609v156.141h-5.27v-155.811z" fill="#9f9eca" stroke="#000" stroke-width="2" stroke-dashoffset="7.6"/><path overflow="visible" d="m217.579 857.245l9.447 6.886.456.324 8.796 8.282.398.393c.9 1.102 2.141 3.165 1.751 3.559.008 2.493-.818 8.962-.818 8.962l-.383 2.543c-.558 2.287-1.191 3.023-1.729 2.892l-3.443-.84c-.538-.131-.522-2.079.036-4.366l.133-.543 1.117-7.581-.959-1.076-8.11-7.706-.456-.324-11.041-8.585" fill="#afafaf" stroke="#000" stroke-width="2" stroke-dashoffset="7.6"/><path d="m232.067 404.044h-40.678c10.127-51.381 20.345-89.641 20.345-89.641s10.213 38.26 20.333 89.641z" fill="#a14628" fill-rule="evenodd"/><path overflow="visible" d="m187.339 848.018l-1.147-12.659v-.559c0-2.354-1.153-4.25-1.707-4.25h-2.837l.157 17.798.033.558 1.969 28.18.089.552 1.916 9.417.162.535c.681 2.254 1.656 3.94 2.186 3.779l3.393-1.025c.53-.16.409-2.104-.272-4.358l-.162-.535-1.75-8.692-.089-.552-1.909-27.631-.033-.558z" fill="#afafaf" stroke="#000" stroke-width="2" stroke-dashoffset="7.6"/><rect overflow="visible" ry="4.25" rx="1" y="795.571" x="180.037" height="37.701" width="12.069" fill="#afafaf" stroke="#000" stroke-width="2" stroke-dashoffset="7.6"/><path overflow="visible" d="m202.557 803.198l6.375-2.625 1.421 3.33-6.433 2.517-9.53 3.131c-4.47 1.244 1.59 10.702 1.067 10.884l-3.224 1.411s-6.968-12.272-.681-14.795l11.005-3.852z" fill="#afafaf" stroke="#000" stroke-width="2" stroke-dashoffset="7.6"/><path overflow="visible" d="M229.834 917.989h-36.114l8.72-50.791c-10.723-9.527-18.83-18.619-17.22-27.209.955-5.097 2.819-15.18 17.319-20.304 0 0 4.619-1 9.239-1 4.619 0 9.239 1 9.239 1 14.5 5.124 16.363 15.207 17.319 20.304 1.61 8.589-6.497 17.682-17.22 27.209l8.72 50.791z" fill="#474747" stroke="#000" stroke-width="2" stroke-dashoffset="7.6"/><rect overflow="visible" rx="4.25" ry="4.25" y="896.653" x="191.277" height="8.5" width="41" fill="#474747" stroke="#000" stroke-width="2" stroke-dashoffset="7.6"/><rect overflow="visible" rx="4.25" ry="4.25" y="846.367" x="183.655" height="7.073" width="56.243" fill="#474747" stroke="#000" stroke-width="2" stroke-dashoffset="7.6"/><rect overflow="visible" rx="3.543" ry="4.25" y="830.772" x="183.186" height="5.262" width="57.182" fill="#474747" stroke="#000" stroke-width="2" stroke-dashoffset="7.6"/><rect overflow="visible" rx="4.25" ry="4.25" y="867.772" x="199.404" height="5.262" width="24.746" fill="#474747" stroke="#000" stroke-width="2" stroke-dashoffset="7.6"/><rect overflow="visible" rx="3.189" ry="4.25" y="881.022" x="195.703" height="5.262" width="32.148" fill="#474747" stroke="#000" stroke-width="2" stroke-dashoffset="7.6"/><path d="M202.174 822.903z" stroke="#000" fill="none"/><path overflow="visible" d="m193.421 815.903l-2.711.977c-.912.329-1.432 2.663-.581 5.024s2.27 3.997 3.182 3.668l3.651-1.316c.912-.329.961-2.494.111-4.855-.851-2.361-2.74-3.827-3.652-3.499z" fill="#474747" stroke="#000" stroke-width="2" stroke-dashoffset="7.6"/><path overflow="visible" d="m210.682 803.198l6.375-2.625 1.421 3.33-6.433 2.517-9.53 3.131c-4.47 1.244 1.59 10.702 1.067 10.884l-3.224 1.411s-6.968-12.272-.681-14.795l11.005-3.852z" fill="#afafaf" stroke="#000" stroke-width="2" stroke-dashoffset="7.6"/><path overflow="visible" d="m213.506 819.722l-3.62.045.196-14.231 3.515.06-.09 14.125z" fill="#afafaf" stroke="#000" stroke-width="2" stroke-dashoffset="7.6"/><path overflow="visible" d="m223.597 765.299l-1.352 6.991c.989.669 1.911 1.43 2.752 2.271 3.366 3.366 5.448 8.015 5.448 13.147 0 10.265-8.331 18.595-18.595 18.595h-25.573s-4-.235-4-3.974c0-3.737 4-3.974 4-3.974l10.155-.253c-.669-.989-1.244-2.046-1.715-3.159-.941-2.224-1.462-4.67-1.462-7.236 0-5.132 2.083-9.781 5.448-13.147.841-.841 1.763-1.603 2.752-2.271l-1.352-6.991h-1.294c-.554 0-1-.986-1-2.21s.446-2.21 1-2.21h10.081c.554 0 1 .986 1 2.21s-.446 2.21-1 2.21h-1.295l.508 4.192s3.694-1.088 7.492 0l.508-4.192h-1.294c-.554 0-1-.986-1-2.21s.446-2.21 1-2.21h10.081c.554 0 1 .986 1 2.21s-.446 2.21-1 2.21h-1.295z" opacity=".99" fill="#8a8a8a" stroke="#000" stroke-width="2" stroke-dashoffset="7.6"/><path overflow="visible" d="m201.671 815.903l-2.711.977c-.912.329-1.432 2.663-.581 5.024s2.27 3.997 3.182 3.668l3.651-1.316c.912-.329.961-2.494.111-4.855-.851-2.361-2.74-3.827-3.652-3.499z" fill="#474747" stroke="#000" stroke-width="2" stroke-dashoffset="7.6"/><path overflow="visible" d="m210.146 816.187l2.879-.12c.969-.04 2.332 1.925 2.437 4.432.105 2.507-.591 4.558-1.56 4.599l-3.878.162c-.969.04-1.833-1.945-1.937-4.453-.105-2.507 1.09-4.579 2.059-4.62z" fill="#474747" stroke="#000" stroke-width="2" stroke-dashoffset="7.6"/><path overflow="visible" d="m230.132 815.903l2.711.977c.912.329 1.432 2.663.581 5.024s-2.27 3.997-3.182 3.668l-3.651-1.316c-.912-.329-.961-2.494-.111-4.855.851-2.361 2.74-3.827 3.652-3.499z" fill="#474747" stroke="#000" stroke-width="2" stroke-dashoffset="7.6"/><path overflow="visible" d="m221.882 815.903l2.711.977c.912.329 1.432 2.663.581 5.024s-2.27 3.997-3.182 3.668l-3.651-1.316c-.912-.329-.961-2.494-.111-4.855.851-2.361 2.74-3.827 3.652-3.499z" fill="#474747" stroke="#000" stroke-width="2" stroke-dashoffset="7.6"/><path d="M142.174 822.903z" stroke="#000" fill="none"/><path overflow="visible" d="m186.727 856.841c1.141.717 2.357 1.615 3.819 3.461l8.31 5.862.52.207 8.259 4.961 3.23 2.538c1.136.857 2.83 4.318 2.545 4.793.599 2.42 1.067 6.872 1.067 6.872v.559c0 2.355-.446 4.25-1 4.25h-3.544c-.554 0-1-1.895-1-4.25v-.559l-.212-4.13-.937-3.818-10.455-6.064-.52-.207-10.262-7.134" fill="#afafaf" stroke="#000" stroke-width="2" stroke-dashoffset="7.6"/><rect overflow="visible" ry="4.25" rx="1" y="890.123" x="209.004" height="9.059" width="5.544" fill="#474747" stroke="#000" stroke-width="2" stroke-dashoffset="7.6"/><rect overflow="visible" transform="matrix(-.921 -.39 -.39 .921 0 0)" ry="4.251" rx="1" y="728.764" x="-565.366" height="9.061" width="5.545" fill="#474747" stroke="#000" stroke-width="2" stroke-dashoffset="7.6"/><rect overflow="visible" transform="rotate(-22.98)" ry="4.25" rx="1" y="893.989" x="-175.498" height="9.059" width="5.544" fill="#474747" stroke="#000" stroke-width="2" stroke-dashoffset="7.6"/><path d="m232.067 408.044v-4h-40.678v4h40.678z" fill="#afafaf" fill-rule="evenodd"/><path d="m242.817 468.544l-.75-4h-60.678l-.75 4h62.178z" fill="#afafaf" fill-rule="evenodd"/><path d="M232.067 408.044h-40.678" fill="#bd4e28" fill-rule="evenodd" stroke="#000" stroke-width="2"/><path d="m232.067 404.044h-18.455l.116-81.687-2-8-2 8-.358 81.688h-17.981" fill="#afafaf" fill-rule="evenodd" stroke="#000" stroke-width="2"/><path overflow="visible" d="m230.869 461.22h-38.184v-50.014h38.184v50.014z" fill="#cacaca" stroke="#000" stroke-width="2" stroke-linejoin="round" stroke-dashoffset="7.6"/><path overflow="visible" d="M223.151 426.766" fill="#3b3b4c" stroke="#000" stroke-width="1.999" stroke-dashoffset="7.6"/><path overflow="visible" d="m224.151 457.251h-24.749v-14.577h24.749v14.577z" fill="#7c7c7c" stroke="#000" stroke-width="2" stroke-linejoin="round" stroke-dashoffset="7.6"/><path d="m181.638 464.544h60.428m.5 4h-62.178" fill="#bd4e28" fill-rule="evenodd" stroke="#000" stroke-width="2"/><path d="m236.764 912.403v8.75h-49.975v-8.75c-7-34-13-148-13-148l-2-184c-3-105 40-266 40-266s42.975 161 39.975 266l-2 184s-6 114-13 148z" stroke="#000" stroke-width="2" fill="none"/><path overflow="visible" d="M219.283 426.847" fill="#3b3b4c" stroke="#000" stroke-width="1.999" stroke-dashoffset="7.6"/><rect overflow="visible" rx="1.775" ry="4.25" y="917.315" x="191.376" height="6.799" width="40.802" fill="#474747" stroke="#000" stroke-width="2" stroke-dashoffset="7.6"/><path overflow="visible" d="m209.07 769.286c-3.338.496-6.388 1.88-8.901 3.903" opacity=".99" fill="#8a8a8a" stroke="#000" stroke-width="2" stroke-dashoffset="7.6"/><g transform="translate(-52.279 283.222)"><g transform="translate(-106.047 -168.181)"><path overflow="visible" d="M381.718 672.783" opacity=".99" fill="#afafaf"/><g fill="#afafaf" stroke="#5f5f5f" stroke-width="2" stroke-dashoffset="7.6"><path overflow="visible" d="m370.177 661.195v22.946" opacity=".99"/><path overflow="visible" d="M358.704 672.668h22.946" opacity=".99"/><path overflow="visible" d="m362.064 664.555l16.225 16.225" opacity=".99"/><path overflow="visible" d="M378.29 664.555l-16.225 16.225" opacity=".99"/></g><path overflow="visible" transform="matrix(.15 0 0 .15 314.861 572.804)" d="M391 664.362" opacity=".99" fill="#8b8a8b" stroke="#000" stroke-width="13.305" stroke-dashoffset="7.6"/><path overflow="visible" transform="matrix(.499 0 0 .499 186.609 341.266)" d="M391 664.362" opacity=".99" stroke="#000" stroke-width="4.009" stroke-dashoffset="7.6" fill="none"/></g><path overflow="visible" d="M391 664.362" transform="matrix(.084 0 0 .084 221.973 448.914)" opacity=".99" fill="#8b8a8b" stroke="#000" stroke-width="14.346" stroke-dashoffset="7.6"/><path overflow="visible" d="M391 664.362" transform="matrix(-.084 0 0 .084 306.236 448.914)" opacity=".99" fill="#8b8a8b" stroke="#000" stroke-width="14.346" stroke-dashoffset="7.6"/><path overflow="visible" d="M391 664.362" transform="matrix(0 -.084 .084 0 208.532 546.619)" opacity=".99" fill="#8b8a8b" stroke="#000" stroke-width="14.346" stroke-dashoffset="7.6"/><path overflow="visible" d="M391 664.362" transform="matrix(0 .084 .084 0 208.532 462.355)" opacity=".99" fill="#8b8a8b" stroke="#000" stroke-width="14.346" stroke-dashoffset="7.6"/></g><path overflow="visible" d="M205.005 794.333" opacity=".99" fill="#8b8a8b" stroke="#000" stroke-width="1.197" stroke-dashoffset="7.6"/><path overflow="visible" d="M218.451 780.887" opacity=".99" fill="#8b8a8b" stroke="#000" stroke-width="1.197" stroke-dashoffset="7.6"/><path overflow="visible" d="M218.451 794.53" opacity=".99" fill="#8b8a8b" stroke="#000" stroke-width="1.197" stroke-dashoffset="7.6"/><path overflow="visible" d="M205.005 781.084" opacity=".99" fill="#8b8a8b" stroke="#000" stroke-width="1.197" stroke-dashoffset="7.6"/></g></svg>