<svg xmlns="http://www.w3.org/2000/svg" width="237.992" height="236.22" viewBox="0 0 201.49999 200"><path d="M100 100l-30.902-95.106a100 100 0 0 1 130.902 95.106" fill="#f00"/><path d="m100 100h100" fill="#fff" stroke="#fff" stroke-width="3"/><path d="M100 100l-30.902-95.106" fill="#fff" stroke="#fff" stroke-width="3"/><path d="M100 100l-92.978-36.812a100 100 0 0 1 62.076-58.293" fill="#0f0"/><path d="M100 100l-30.902-95.106" fill="#fff" stroke="#fff" stroke-width="3"/><path d="M100 100l-92.978-36.812" fill="#fff" stroke="#fff" stroke-width="3"/><path d="M100 100l-63.742 77.051a100 100 0 0 1-29.235-113.864" fill="#00f"/><path d="M100 100l-92.978-36.812" fill="#fff" stroke="#fff" stroke-width="3"/><path d="M100 100l-63.742 77.051" fill="#fff" stroke="#fff" stroke-width="3"/><path d="m100 100l36.812 92.978a100 100 0 0 1-100.555-15.926" fill="#ff0"/><path d="M100 100l-63.742 77.051" fill="#fff" stroke="#fff" stroke-width="3"/><path d="m100 100l36.812 92.978" fill="#fff" stroke="#fff" stroke-width="3"/><path d="m100 100h100a100 100 0 0 1-63.188 92.978" fill="#cd00c4"/><path d="m100 100l36.812 92.978" fill="#fff" stroke="#fff" stroke-width="3"/><path d="m100 100h100" fill="#fff" stroke="#fff" stroke-width="3"/></svg>