<svg xmlns="http://www.w3.org/2000/svg" width="490" height="654" version="1"><path d="M237.685 640.681v-9.5l5.536-.729v-5.771c.494-2.494-.512-6.988 6.732-6.732v24.482h-5.384l.116-1.75h-7z" fill="#cdcdcd" fill-rule="evenodd" stroke="#000" stroke-width="2"/><path d="M198.453 640.681v-9.5l-5.536-.729v-5.771c-.494-2.494.512-6.988-6.732-6.732v24.482h5.384l-.116-1.75h7z" fill="#cdcdcd" fill-rule="evenodd" stroke="#000" stroke-width="2"/><path d="M180.485 463.423l-37.477 60.811-6.364 117.38h26.87l17.799-16.385h11.572l.25-14.728 11.391-67.175-24.042-79.903z" fill="#afafaf" fill-rule="evenodd" stroke="#000" stroke-width="2"/><path d="M255.626 463.423l37.477 60.811 6.364 117.38h-26.87l-17.799-16.385h-11.572l-.25-14.728-11.391-67.175 24.042-79.903z" fill="#afafaf" fill-rule="evenodd" stroke="#000" stroke-width="2"/><path d="M243.043 610.181v8.75h-49.975v-8.75c-7-34-13-148-13-148l-2-184c-3-105 40-266 40-266s42.975 161 39.975 266l-2 184s-6 114-13 148z" fill="#cdcdcd" fill-rule="evenodd"/><path d="M150.106 641.614v-19.095h-12.426l-1.035 19.095h13.461z" fill="#cdcdcd" fill-rule="evenodd" stroke="#000" stroke-width="2"/><path d="M154.702 641.614h8.813l15.039-13.965-4.053-15.38-19.799 25.456v3.889z" fill="#cdcdcd" fill-rule="evenodd" stroke="#000" stroke-width="2"/><path d="M286.005 641.614v-19.095h12.426l1.035 19.095h-13.461z" fill="#cdcdcd" fill-rule="evenodd" stroke="#000" stroke-width="2"/><path d="M281.409 641.614h-8.813l-15.039-13.965 4.053-15.38 19.799 25.456v3.889z" fill="#cdcdcd" fill-rule="evenodd" stroke="#000" stroke-width="2"/><path d="M227.124 500.976l-6.375-2.625-1.421 3.33 6.433 2.517 9.53 3.131c4.47 1.244-1.59 10.702-1.067 10.884l3.224 1.411s6.968-12.272.681-14.795l-11.005-3.852z" fill="#afafaf" stroke="#000" stroke-width="2" stroke-dashoffset="7.6" overflow="visible"/><path d="M218.999 500.976l-6.375-2.625-1.421 3.33 6.433 2.517 9.53 3.131c4.47 1.244-1.59 10.702-1.067 10.884l3.224 1.411s6.968-12.272.681-14.795l-11.005-3.852z" fill="#afafaf" stroke="#000" stroke-width="2" stroke-dashoffset="7.6" overflow="visible"/><rect width="33.797" height="6.896" x="191.076" y="457.112" rx="3.536" ry="6.187" fill="#9f9eca" stroke="#000" stroke-width="2" stroke-dashoffset="7.6" overflow="visible"/><path d="M190.954 500.835h54.255l-2.22 46.405 4.414.212 4.658-97.13-4.414-.212h-59.127l-4.414.212 4.658 97.13 4.414-.212-2.226-46.405zm54.442-3.895h-54.605l-2.062-42.51h58.701l-2.034 42.51z" fill="#afaf9b" stroke="#000" stroke-width="2" stroke-dashoffset="7.6" overflow="visible"/><rect width="13.435" height="20.506" x="230.089" y="472.671" rx="3.475" ry="4.25" fill="#8888a3" stroke="#000" stroke-width="2" stroke-dashoffset="7.6" overflow="visible"/><rect width="33.797" height="6.896" x="191.076" y="464.173" rx="3.536" ry="6.187" fill="#9f9eca" stroke="#000" stroke-width="2" stroke-dashoffset="7.6" overflow="visible"/><path d="M342.947 620.32a29.698 14.142 0 1 1-59.397 0 29.698 14.142 0 1 1 59.397 0z" transform="matrix(.77 0 0 .907 -11.742 -102.382)" opacity=".99" fill="#474747" stroke="#000" stroke-width="2.394" stroke-dashoffset="7.6" overflow="visible"/><rect width="33.797" height="6.896" x="191.076" y="471.112" rx="3.536" ry="6.187" fill="#9f9eca" stroke="#000" stroke-width="2" stroke-dashoffset="7.6" overflow="visible"/><path d="M212.52 445.121l2.718.062h5.524c.914-.01 1.82-.03 2.718-.062 1.796-.063 3.556-.171 5.27-.33 3.427-.318 6.667-.839 9.625-1.609 5.917-1.542 10.708-4.083 13.625-8v-107.992c-5.833-7.833-19.167-10.167-34-10-14.833-.167-28.167 2.167-34 10v107.992c2.917 3.917 7.708 6.458 13.625 8 2.958.771 6.198 1.292 9.625 1.609v22.141h5.27v-21.811z" fill="#afafc3" stroke="#000" stroke-width="2" stroke-dashoffset="7.6" overflow="visible"/><path d="M223.481 311.121l-2.718.062h-5.524c-.914-.01-1.82-.03-2.718-.062-1.796-.063-3.556-.171-5.27-.33-3.427-.318-6.667-.839-9.625-1.609-5.917-1.542-12.708-4.083-15.625-8l7-121.992c5.833-7.833 14.167-10.167 29-10 14.833-.167 23.167 2.167 29 10l7 121.992c-2.917 3.917-9.708 6.458-15.625 8-2.958.771-6.198 1.292-9.625 1.609v156.14100000000002h-5.27v-155.811z" fill="#9f9eca" stroke="#000" stroke-width="2" stroke-dashoffset="7.6" overflow="visible"/><path d="M223.858 555.023l9.447 6.886.456.324 8.796 8.282.398.393c.9 1.102 2.141 3.165 1.751 3.559.008 2.493-.818 8.962-.818 8.962l-.383 2.543c-.558 2.287-1.191 3.023-1.729 2.892l-3.443-.84c-.538-.131-.522-2.079.036-4.366l.133-.543 1.117-7.581-.959-1.076-8.11-7.706-.456-.324-11.041-8.585" fill="#afafaf" stroke="#000" stroke-width="2" stroke-dashoffset="7.6" overflow="visible"/><path d="M238.346 101.822h-40.678c10.127-51.381 20.345-89.641 20.345-89.641s10.213 38.26 20.333 89.641z" fill="#a14628" fill-rule="evenodd"/><path d="M193.618 545.796l-1.147-12.659v-.559c0-2.354-1.153-4.25-1.707-4.25h-2.837l.157 17.798.033.558 1.969 28.18.089.552 1.916 9.417.162.535c.681 2.254 1.656 3.94 2.186 3.779l3.393-1.025c.53-.16.409-2.104-.272-4.358l-.162-.535-1.75-8.692-.089-.552-1.909-27.631-.033-.558z" fill="#afafaf" stroke="#000" stroke-width="2" stroke-dashoffset="7.6" overflow="visible"/><rect width="12.069" height="37.701" x="186.316" y="493.349" rx="1" ry="4.25" fill="#afafaf" stroke="#000" stroke-width="2" stroke-dashoffset="7.6" overflow="visible"/><path d="M208.836 500.976l6.375-2.625 1.421 3.33-6.433 2.517-9.53 3.131c-4.47 1.244 1.59 10.702 1.067 10.884l-3.224 1.411s-6.968-12.272-.681-14.795l11.005-3.852z" fill="#afafaf" stroke="#000" stroke-width="2" stroke-dashoffset="7.6" overflow="visible"/><path d="M236.113 615.767h-36.114l8.72-50.791c-10.723-9.527-18.83-18.619-17.22-27.209.955-5.097 2.819-15.18 17.319-20.304 0 0 4.619-1 9.239-1 4.619 0 9.239 1 9.239 1 14.5 5.124 16.363 15.207 17.319 20.304 1.61 8.589-6.497 17.682-17.22 27.209l8.72 50.791z" fill="#474747" stroke="#000" stroke-width="2" stroke-dashoffset="7.6" overflow="visible"/><rect width="41" height="8.5" x="197.556" y="594.431" ry="4.25" rx="4.25" fill="#474747" stroke="#000" stroke-width="2" stroke-dashoffset="7.6" overflow="visible"/><rect width="56.243" height="7.073" x="189.934" y="544.145" ry="4.25" rx="4.25" fill="#474747" stroke="#000" stroke-width="2" stroke-dashoffset="7.6" overflow="visible"/><rect width="57.182" height="5.262" x="189.465" y="528.55" ry="4.25" rx="3.543" fill="#474747" stroke="#000" stroke-width="2" stroke-dashoffset="7.6" overflow="visible"/><rect width="24.746" height="5.262" x="205.683" y="565.55" ry="4.25" rx="4.25" fill="#474747" stroke="#000" stroke-width="2" stroke-dashoffset="7.6" overflow="visible"/><rect width="32.148" height="5.262" x="201.982" y="578.8" ry="4.25" rx="3.189" fill="#474747" stroke="#000" stroke-width="2" stroke-dashoffset="7.6" overflow="visible"/><path d="M208.453 520.681z" stroke="#000" fill="none"/><path d="M199.7 513.681l-2.711.977c-.912.329-1.432 2.663-.581 5.024s2.27 3.997 3.182 3.668l3.651-1.316c.912-.329.961-2.494.111-4.855-.851-2.361-2.74-3.827-3.652-3.499z" fill="#474747" stroke="#000" stroke-width="2" stroke-dashoffset="7.6" overflow="visible"/><path d="M216.961 500.976l6.375-2.625 1.421 3.33-6.433 2.517-9.53 3.131c-4.47 1.244 1.59 10.702 1.067 10.884l-3.224 1.411s-6.968-12.272-.681-14.795l11.005-3.852z" fill="#afafaf" stroke="#000" stroke-width="2" stroke-dashoffset="7.6" overflow="visible"/><path d="M219.785 517.5l-3.62.045.196-14.231 3.515.06-.09 14.125z" fill="#afafaf" stroke="#000" stroke-width="2" stroke-dashoffset="7.6" overflow="visible"/><path d="M229.876 463.077l-1.352 6.991c.989.669 1.911 1.43 2.752 2.271 3.366 3.366 5.448 8.015 5.448 13.147 0 10.265-8.331 18.595-18.595 18.595h-25.573s-4-.235-4-3.974c0-3.737 4-3.974 4-3.974l10.155-.253c-.669-.989-1.244-2.046-1.715-3.159-.941-2.224-1.462-4.67-1.462-7.236 0-5.132 2.083-9.781 5.448-13.147.841-.841 1.763-1.603 2.752-2.271l-1.352-6.991h-1.294c-.554 0-1-.986-1-2.21s.446-2.21 1-2.21h10.081c.554 0 1 .986 1 2.21s-.446 2.21-1 2.21h-1.295l.508 4.192s3.694-1.088 7.492 0l.508-4.192h-1.294c-.554 0-1-.986-1-2.21s.446-2.21 1-2.21h10.081c.554 0 1 .986 1 2.21s-.446 2.21-1 2.21h-1.295z" opacity=".99" fill="#8a8a8a" stroke="#000" stroke-width="2" stroke-dashoffset="7.6" overflow="visible"/><path d="M207.95 513.681l-2.711.977c-.912.329-1.432 2.663-.581 5.024s2.27 3.997 3.182 3.668l3.651-1.316c.912-.329.961-2.494.111-4.855-.851-2.361-2.74-3.827-3.652-3.499z" fill="#474747" stroke="#000" stroke-width="2" stroke-dashoffset="7.6" overflow="visible"/><path d="M216.425 513.965l2.879-.12c.969-.04 2.332 1.925 2.437 4.432.105 2.507-.591 4.558-1.56 4.599l-3.878.162c-.969.04-1.833-1.945-1.937-4.453-.105-2.507 1.09-4.579 2.059-4.62z" fill="#474747" stroke="#000" stroke-width="2" stroke-dashoffset="7.6" overflow="visible"/><path d="M236.411 513.681l2.711.977c.912.329 1.432 2.663.581 5.024s-2.27 3.997-3.182 3.668l-3.651-1.316c-.912-.329-.961-2.494-.111-4.855.851-2.361 2.74-3.827 3.652-3.499z" fill="#474747" stroke="#000" stroke-width="2" stroke-dashoffset="7.6" overflow="visible"/><path d="M228.161 513.681l2.711.977c.912.329 1.432 2.663.581 5.024s-2.27 3.997-3.182 3.668l-3.651-1.316c-.912-.329-.961-2.494-.111-4.855.851-2.361 2.74-3.827 3.652-3.499z" fill="#474747" stroke="#000" stroke-width="2" stroke-dashoffset="7.6" overflow="visible"/><path d="M148.453 520.681z" stroke="#000" fill="none"/><path d="M193.006 554.619c1.141.717 2.357 1.615 3.819 3.461l8.31 5.862.52.207 8.259 4.961 3.23 2.538c1.136.857 2.83 4.318 2.545 4.793.599 2.42 1.067 6.872 1.067 6.872v.559c0 2.355-.446 4.25-1 4.25h-3.544c-.554 0-1-1.895-1-4.25v-.559l-.212-4.13-.937-3.818-10.455-6.064-.52-.207-10.262-7.134" fill="#afafaf" stroke="#000" stroke-width="2" stroke-dashoffset="7.6" overflow="visible"/><rect width="5.544" height="9.059" x="215.283" y="587.901" rx="1" ry="4.25" fill="#474747" stroke="#000" stroke-width="2" stroke-dashoffset="7.6" overflow="visible"/><rect width="5.544" height="9.059" x="-453.224" y="447.94" rx="1" ry="4.25" transform="matrix(-.921 -.39 -.39 .921 0 0)" fill="#474747" stroke="#000" stroke-width="2" stroke-dashoffset="7.6" overflow="visible"/><rect width="5.544" height="9.059" x="-51.727" y="618.202" rx="1" ry="4.25" transform="rotate(-22.98)" fill="#474747" stroke="#000" stroke-width="2" stroke-dashoffset="7.6" overflow="visible"/><path d="M238.346 105.822v-4h-40.678v4h40.678z" fill="#afafaf" fill-rule="evenodd"/><path d="M249.096 166.322l-.75-4h-60.678l-.75 4h62.178z" fill="#afafaf" fill-rule="evenodd"/><path d="M238.346 105.822h-40.678" fill="#bd4e28" fill-rule="evenodd" stroke="#000" stroke-width="2"/><path d="M238.346 101.822h-18.455l.116-81.687-2-8-2 8-.358 81.688h-17.981" fill="#afafaf" fill-rule="evenodd" stroke="#000" stroke-width="2"/><path d="M237.148 158.998h-38.184v-50.014h38.184v50.014z" fill="#cacaca" stroke="#000" stroke-width="2" stroke-linejoin="round" stroke-dashoffset="7.6" overflow="visible"/><path d="M149.5 308.362a18.5 18.5 0 1 1-37 0 18.5 18.5 0 1 1 37 0z" transform="matrix(.618 0 0 .618 137.039 -66.024)" fill="#3b3b4c" stroke="#000" stroke-width="3.234" stroke-dashoffset="7.6" overflow="visible"/><path d="M230.43 155.029h-24.749v-14.577h24.749v14.577z" fill="#7c7c7c" stroke="#000" stroke-width="2" stroke-linejoin="round" stroke-dashoffset="7.6" overflow="visible"/><path d="M187.917 162.322h60.428m.5 4h-62.178" fill="#bd4e28" fill-rule="evenodd" stroke="#000" stroke-width="2"/><path d="M243.043 610.181v8.75h-49.975v-8.75c-7-34-13-148-13-148l-2-184c-3-105 40-266 40-266s42.975 161 39.975 266l-2 184s-6 114-13 148z" stroke="#000" stroke-width="2" fill="none"/><path d="M149.5 308.362a18.5 18.5 0 1 1-37 0 18.5 18.5 0 1 1 37 0z" transform="matrix(.407 0 0 .407 164.715 -.878)" fill="#3b3b4c" stroke="#000" stroke-width="4.912" stroke-dashoffset="7.6" overflow="visible"/><rect width="40.802" height="6.799" x="197.655" y="615.093" ry="4.25" rx="1.775" fill="#474747" stroke="#000" stroke-width="2" stroke-dashoffset="7.6" overflow="visible"/><text style="-inkscape-font-specification:MS Gothic" x="314.816" y="394.063" font-size="12" font-family="MS Gothic"><tspan x="314.816" y="394.063">液体酸素</tspan></text><text style="-inkscape-font-specification:MS PGothic" x="315.836" y="231.464" font-size="12" font-family="MS PGothic"><tspan x="315.836" y="231.464">アルコール水</tspan></text><text style="-inkscape-font-specification:MS PGothic" x="314.816" y="319.18" font-size="12" font-family="MS PGothic"><tspan x="314.816" y="319.18">ロケット本体</tspan></text><text style="-inkscape-font-specification:MS PGothic" x="315.373" y="166.516" font-size="12" font-family="MS PGothic"><tspan x="315.373" y="166.516">ガイドビーム・誘導電波</tspan><tspan x="315.373" y="181.516">受信装置</tspan></text><text style="-inkscape-font-specification:MS Gothic" x="315.449" y="51.621" font-size="12" font-family="MS Gothic"><tspan x="315.449" y="51.621">弾頭</tspan></text><text style="-inkscape-font-specification:MS PGothic" x="315.836" y="635.943" font-size="12" font-family="MS PGothic"><tspan x="315.836" y="635.943">制御翼</tspan></text><text style="-inkscape-font-specification:MS PGothic" x="47.614" y="641.42" font-size="12" font-family="MS PGothic"><tspan x="47.614" y="641.42">推力偏向板</tspan></text><text style="-inkscape-font-specification:MS PGothic" x="314.816" y="488.971" font-size="12" font-family="MS PGothic"><tspan x="314.816" y="488.971">プロペラ式ターボポンプ</tspan></text><text x="314.816" y="429.597" font-size="12" font-family="Bitstream Vera Sans"><tspan x="314.816" y="429.597" style="-inkscape-font-specification:MS PGothic" font-family="MS PGothic">過酸化水素水タンク</tspan></text><text style="-inkscape-font-specification:MS Gothic" x="314.927" y="568.815" font-size="12" font-family="MS Gothic"><tspan x="314.927" y="568.815">燃焼室（外形）</tspan></text><text style="-inkscape-font-specification:MS Gothic" x="315.988" y="516.151" font-size="12" font-family="MS Gothic"><tspan x="315.988" y="516.151">スラストフレーム</tspan></text><text style="text-align:end;line-height:125%;-inkscape-font-specification:MS PGothic" x="137.917" y="462.532" font-size="12" text-anchor="end" font-family="MS PGothic"><tspan x="137.917" y="462.532">圧縮窒素充填ボトル</tspan></text><text style="text-align:end;line-height:125%;-inkscape-font-specification:MS PGothic" x="98.526" y="563.284" font-size="12" text-anchor="end" font-family="MS PGothic"><tspan x="98.526" y="563.284">翼</tspan></text><text style="-inkscape-font-specification:MS PGothic" x="315.314" y="538.802" font-size="12" font-family="MS PGothic"><tspan x="315.314" y="538.802">酸素／アルコール</tspan><tspan x="315.314" y="553.802">バーナーキャップ</tspan></text><text style="-inkscape-font-specification:MS PGothic" x="315.836" y="610.995" font-size="12" font-family="MS PGothic"><tspan x="315.836" y="610.995">アルコール導入口</tspan></text><path d="M292.924 632.058h18.305" opacity=".7" stroke="#000" fill="none"/><path d="M244.033 459.929l66.196-34" opacity=".7" stroke="#000" fill="none"/><path d="M236.498 518.234l72.125 16.263" opacity=".7" stroke="#000" fill="none"/><path d="M238.619 538.74l72.125 25.456" opacity=".7" stroke="#000" fill="none"/><path d="M247.569 503.385l64.811 9.071" opacity=".7" stroke="#000" fill="none"/><path d="M238.74 591.066l72.125 15.556" opacity=".7" stroke="#000" fill="none"/><path d="M240.033 477.929l69.903-29" opacity=".7" stroke="#000" fill="none"/><path d="M103.447 637.028h86.731" opacity=".7" stroke="#000" fill="none"/><path d="M240.033 385.929l71.196 4.293" opacity=".7" stroke="#000" fill="none"/><path d="M141.704 461.544l55.903 6.485" opacity=".7" stroke="#000" fill="none"/><path d="M240.033 237.929l70.004-9.899" opacity=".7" stroke="#000" fill="none"/><path d="M226.033 147.929l83.439 15.556" opacity=".7" stroke="#000" fill="none"/><path d="M222.033 123.929l87.681-24.749" opacity=".7" stroke="#000" fill="none"/><path d="M226.033 79.929l85.56-31.113" opacity=".7" stroke="#000" fill="none"/><path d="M232.033 487.929l77.66-2.121" opacity=".7" stroke="#000" fill="none"/><path d="M257.205 315.929h52.246" opacity=".7" stroke="#000" fill="none"/><path d="M106.033 559.929h59.903" opacity=".7" stroke="#000" fill="none"/><text x="314.816" y="451.959" font-size="12" font-family="Bitstream Vera Sans"><tspan x="314.816" y="451.959" style="-inkscape-font-specification:MS PGothic" font-family="MS PGothic">過酸化水素水反応室</tspan></text><path d="M215.349 467.064c-3.338.496-6.388 1.88-8.901 3.903" opacity=".99" fill="#8a8a8a" stroke="#000" stroke-width="2" stroke-dashoffset="7.6" overflow="visible"/><g transform="translate(-46 -19)"><g transform="translate(-106.047 -168.181)"><path d="M391 664.362a23 23 0 1 1-46 0 23 23 0 1 1 46 0z" transform="matrix(.499 0 0 .499 186.609 341.266)" opacity=".99" fill="#afafaf" overflow="visible"/><g fill="#afafaf" stroke="#5f5f5f" stroke-width="2" stroke-dashoffset="7.6"><path d="M370.177 661.195v22.946" opacity=".99" overflow="visible"/><path d="M358.704 672.668h22.946" opacity=".99" overflow="visible"/><path d="M362.064 664.555l16.225 16.225" opacity=".99" overflow="visible"/><path d="M378.29 664.555l-16.225 16.225" opacity=".99" overflow="visible"/></g><path d="M391 664.362a23 23 0 1 1-46 0 23 23 0 1 1 46 0z" transform="matrix(.15 0 0 .15 314.861 572.804)" opacity=".99" fill="#8b8a8b" stroke="#000" stroke-width="13.305" stroke-dashoffset="7.6" overflow="visible"/><path d="M391 664.362a23 23 0 1 1-46 0 23 23 0 1 1 46 0z" transform="matrix(.499 0 0 .499 186.609 341.266)" opacity=".99" stroke="#000" stroke-width="4.009" stroke-dashoffset="7.6" overflow="visible" fill="none"/></g><path transform="matrix(.084 0 0 .084 221.973 448.914)" d="M391 664.362a23 23 0 1 1-46 0 23 23 0 1 1 46 0z" opacity=".99" fill="#8b8a8b" stroke="#000" stroke-width="14.346" stroke-dashoffset="7.6" overflow="visible"/><path transform="matrix(-.084 0 0 .084 306.236 448.914)" d="M391 664.362a23 23 0 1 1-46 0 23 23 0 1 1 46 0z" opacity=".99" fill="#8b8a8b" stroke="#000" stroke-width="14.346" stroke-dashoffset="7.6" overflow="visible"/><path transform="matrix(0 -.084 .084 0 208.532 546.619)" d="M391 664.362a23 23 0 1 1-46 0 23 23 0 1 1 46 0z" opacity=".99" fill="#8b8a8b" stroke="#000" stroke-width="14.346" stroke-dashoffset="7.6" overflow="visible"/><path transform="matrix(0 .084 .084 0 208.532 462.355)" d="M391 664.362a23 23 0 1 1-46 0 23 23 0 1 1 46 0z" opacity=".99" fill="#8b8a8b" stroke="#000" stroke-width="14.346" stroke-dashoffset="7.6" overflow="visible"/></g><path d="M391 664.362a23 23 0 1 1-46 0 23 23 0 1 1 46 0z" transform="matrix(.059 -.059 .059 .059 149.017 475.983)" opacity=".99" fill="#8b8a8b" stroke="#000" stroke-width="14.346" stroke-dashoffset="7.6" overflow="visible"/><path d="M391 664.362a23 23 0 1 1-46 0 23 23 0 1 1 46 0z" transform="matrix(-.059 .059 .059 .059 208.601 416.399)" opacity=".99" fill="#8b8a8b" stroke="#000" stroke-width="14.346" stroke-dashoffset="7.6" overflow="visible"/><path d="M391 664.362a23 23 0 1 1-46 0 23 23 0 1 1 46 0z" transform="matrix(-.059 -.059 .059 -.059 208.601 554.574)" opacity=".99" fill="#8b8a8b" stroke="#000" stroke-width="14.346" stroke-dashoffset="7.6" overflow="visible"/><path d="M391 664.362a23 23 0 1 1-46 0 23 23 0 1 1 46 0z" transform="matrix(.059 .059 .059 -.059 149.017 494.99)" opacity=".99" fill="#8b8a8b" stroke="#000" stroke-width="14.346" stroke-dashoffset="7.6" overflow="visible"/><text x="393.151" y="55.081" font-size="40" font-family="Bitstream Vera Sans"/><text style="-inkscape-font-specification:MS PGothic" x="313.248" y="101.043" font-size="12" font-family="MS PGothic"><tspan x="313.248" y="101.043">自動ジャイロコントロール</tspan></text><text x="59.397" y="54.373" font-size="40"/></svg>