<svg xmlns="http://www.w3.org/2000/svg" xmlns:xlink="http://www.w3.org/1999/xlink" width="582.769" height="234.938"><defs><linearGradient id="b"><stop offset="0" stop-color="#2819ad" stop-opacity=".667"/><stop offset="1" stop-color="#2819ad" stop-opacity=".342"/></linearGradient><linearGradient id="a"><stop offset="0" stop-color="#003dcc" stop-opacity=".486"/><stop offset="1" stop-color="#21d3cc" stop-opacity=".333"/></linearGradient><linearGradient xlink:href="#a" id="c" gradientUnits="userSpaceOnUse" gradientTransform="matrix(.441 0 0 .582 665.429 265.484)" x1="1192.286" y1="634.286" x2="1190.571" y2="1022.857" spreadMethod="reflect"/><linearGradient xlink:href="#b" id="d" gradientUnits="userSpaceOnUse" gradientTransform="matrix(.441 0 0 .582 691.905 273.259)" x1="732.286" y1="818.076" x2="1656.286" y2="818.076"/></defs><g transform="translate(-1014.906 -632.156)"><path d="m1016.363 633.162h405.084c.244 0 .441 1.104.441 2.475l1.01 29.101 174.756 29.294-174.756 35.355-1.01 134.217c-.01 1.371-.197 2.475-.441 2.475-132.57-.153-282.719-.105-405.084 0-.244 0-.441-1.104-.441-2.475v-227.968c0-1.371.197-2.475.441-2.475z" fill="url(#c)" stroke="url(#d)" stroke-width="2.028" stroke-linecap="round" stroke-linejoin="round" stroke-opacity=".502"/><text style="text-align:start;line-height:125%;" x="1046.233" y="683.69" font-size="18.145" letter-spacing="0" word-spacing="0" fill="#fff" font-family="Open Sans"><tspan x="1046.233" y="683.69" style="text-align:start;line-height:125%;" font-size="32.66" font-weight="bold" fill="#fff" font-family="Open Sans">Create shape</tspan><tspan x="1046.233" y="726.737" style="text-align:start;line-height:125%;" font-size="29.032" fill="#fff" font-family="Andale Mono">Pablo.circle({r:50})</tspan><tspan x="1046.233" y="785.465" style="text-align:start;line-height:125%;" font-size="27.217" fill="#fff" font-family="Open Sans">Generates SVG:</tspan><tspan x="1046.233" y="827.048" style="text-align:start;line-height:125%;" font-size="29.032" fill="#fff" font-family="Andale Mono">&lt;circle r=&quot;50&quot;/&gt;</tspan></text></g></svg>