<?xml version="1.0" encoding="UTF-8" standalone="no"?>
<!-- Created with Inkscape (http://www.inkscape.org/) -->

<svg
   xmlns:dc="http://purl.org/dc/elements/1.1/"
   xmlns:cc="http://creativecommons.org/ns#"
   xmlns:rdf="http://www.w3.org/1999/02/22-rdf-syntax-ns#"
   xmlns:svg="http://www.w3.org/2000/svg"
   xmlns="http://www.w3.org/2000/svg"
   xmlns:sodipodi="http://sodipodi.sourceforge.net/DTD/sodipodi-0.dtd"
   xmlns:inkscape="http://www.inkscape.org/namespaces/inkscape"
   width="1920"
   height="1080"
   id="svg2"
   version="1.1"
   inkscape:version="0.48.2 r9819"
   sodipodi:docname="New document 1">
  <defs
     id="defs4" />
  <sodipodi:namedview
     id="base"
     pagecolor="#ffffff"
     bordercolor="#666666"
     borderopacity="1.0"
     inkscape:pageopacity="0.0"
     inkscape:pageshadow="2"
     inkscape:zoom="0.35"
     inkscape:cx="148.51057"
     inkscape:cy="356.78608"
     inkscape:document-units="px"
     inkscape:current-layer="layer1"
     showgrid="false"
     inkscape:window-width="1440"
     inkscape:window-height="852"
     inkscape:window-x="0"
     inkscape:window-y="0"
     inkscape:window-maximized="1" />
  <metadata
     id="metadata7">
    <rdf:RDF>
      <cc:Work
         rdf:about="">
        <dc:format>image/svg+xml</dc:format>
        <dc:type
           rdf:resource="http://purl.org/dc/dcmitype/StillImage" />
        <dc:title></dc:title>
      </cc:Work>
    </rdf:RDF>
  </metadata>
  <g
     inkscape:label="Layer 1"
     inkscape:groupmode="layer"
     id="layer1"
     transform="translate(0,27.637817)">
    <g
       id="rocket"
       inkscape:label="">
      <path
         id="path3325"
         d="m 231.40647,942.90307 v -9.5 l 5.536,-0.729 v -5.771 c 0.494,-2.494 -0.512,-6.988 6.732,-6.732 v 24.482 h -5.384 l 0.116,-1.75 h -7 z"
         inkscape:connector-curvature="0"
         style="fill:#cdcdcd;fill-rule:evenodd;stroke:#000000;stroke-width:2" />
      <path
         id="path3327"
         d="m 192.17447,942.90307 v -9.5 l -5.536,-0.729 v -5.771 c -0.494,-2.494 0.512,-6.988 -6.732,-6.732 v 24.482 h 5.384 l -0.116,-1.75 h 7 z"
         inkscape:connector-curvature="0"
         style="fill:#cdcdcd;fill-rule:evenodd;stroke:#000000;stroke-width:2" />
      <path
         id="path3329"
         d="m 174.20647,765.64507 -37.477,60.811 -6.364,117.38 h 26.87 l 17.799,-16.385 h 11.572 l 0.25,-14.728 11.391,-67.175 -24.042,-79.903 z"
         inkscape:connector-curvature="0"
         style="fill:#afafaf;fill-rule:evenodd;stroke:#000000;stroke-width:2" />
      <path
         id="path3331"
         d="m 249.34747,765.64507 37.477,60.811 6.364,117.38 h -26.87 l -17.799,-16.385 h -11.572 l -0.25,-14.728 -11.391,-67.175 24.042,-79.903 z"
         inkscape:connector-curvature="0"
         style="fill:#afafaf;fill-rule:evenodd;stroke:#000000;stroke-width:2" />
      <path
         id="path3333"
         d="m 236.76447,912.40307 v 8.75 h -49.975 v -8.75 c -7,-34 -13,-148 -13,-148 l -2,-184 c -3,-105 40,-266 40,-266 0,0 42.975,161 39.975,266 l -2,184 c 0,0 -6,114 -13,148 z"
         inkscape:connector-curvature="0"
         style="fill:#cdcdcd;fill-rule:evenodd" />
      <path
         id="path3335"
         d="m 143.82747,943.83607 v -19.095 h -12.426 l -1.035,19.095 h 13.461 z"
         inkscape:connector-curvature="0"
         style="fill:#cdcdcd;fill-rule:evenodd;stroke:#000000;stroke-width:2" />
      <path
         id="path3337"
         d="m 148.42347,943.83607 h 8.813 l 15.039,-13.965 -4.053,-15.38 -19.799,25.456 v 3.889 z"
         inkscape:connector-curvature="0"
         style="fill:#cdcdcd;fill-rule:evenodd;stroke:#000000;stroke-width:2" />
      <path
         id="path3339"
         d="m 279.72647,943.83607 v -19.095 h 12.426 l 1.035,19.095 h -13.461 z"
         inkscape:connector-curvature="0"
         style="fill:#cdcdcd;fill-rule:evenodd;stroke:#000000;stroke-width:2" />
      <path
         id="path3341"
         d="m 275.13047,943.83607 h -8.813 l -15.039,-13.965 4.053,-15.38 19.799,25.456 v 3.889 z"
         inkscape:connector-curvature="0"
         style="fill:#cdcdcd;fill-rule:evenodd;stroke:#000000;stroke-width:2" />
      <path
         id="path3343"
         overflow="visible"
         d="m 220.84547,803.19807 -6.375,-2.625 -1.421,3.33 6.433,2.517 9.53,3.131 c 4.47,1.244 -1.59,10.702 -1.067,10.884 l 3.224,1.411 c 0,0 6.968,-12.272 0.681,-14.795 l -11.005,-3.852 z"
         inkscape:connector-curvature="0"
         style="fill:#afafaf;stroke:#000000;stroke-width:2;stroke-dashoffset:7.6;overflow:visible" />
      <path
         id="path3345"
         overflow="visible"
         d="m 212.72047,803.19807 -6.375,-2.625 -1.421,3.33 6.433,2.517 9.53,3.131 c 4.47,1.244 -1.59,10.702 -1.067,10.884 l 3.224,1.411 c 0,0 6.968,-12.272 0.681,-14.795 l -11.005,-3.852 z"
         inkscape:connector-curvature="0"
         style="fill:#afafaf;stroke:#000000;stroke-width:2;stroke-dashoffset:7.6;overflow:visible" />
      <rect
         id="rect3347"
         overflow="visible"
         ry="6.1869998"
         rx="3.536"
         y="759.33405"
         x="184.79747"
         height="6.8959999"
         width="33.797001"
         style="fill:#9f9eca;stroke:#000000;stroke-width:2;stroke-dashoffset:7.6;overflow:visible" />
      <path
         id="path3349"
         overflow="visible"
         d="m 184.67547,803.05707 h 54.255 l -2.22,46.405 4.414,0.212 4.658,-97.13 -4.414,-0.212 h -59.127 l -4.414,0.212 4.658,97.13 4.414,-0.212 -2.226,-46.405 z m 54.442,-3.895 h -54.605 l -2.062,-42.51 h 58.701 l -2.034,42.51 z"
         inkscape:connector-curvature="0"
         style="fill:#afaf9b;stroke:#000000;stroke-width:2;stroke-dashoffset:7.6;overflow:visible" />
      <rect
         id="rect3351"
         overflow="visible"
         ry="4.25"
         rx="3.4749999"
         y="774.89307"
         x="223.81047"
         height="20.506001"
         width="13.435"
         style="fill:#8888a3;stroke:#000000;stroke-width:2;stroke-dashoffset:7.6;overflow:visible" />
      <rect
         id="rect3353"
         overflow="visible"
         ry="6.1869998"
         rx="3.536"
         y="766.39508"
         x="184.79747"
         height="6.8959999"
         width="33.797001"
         style="fill:#9f9eca;stroke:#000000;stroke-width:2;stroke-dashoffset:7.6;overflow:visible" />
      <path
         id="path3355"
         overflow="visible"
         d="M 246.04866,762.47031"
         inkscape:connector-curvature="0"
         style="opacity:0.98999999;fill:#474747;stroke:#000000;stroke-width:2.00065947;stroke-dashoffset:7.6;overflow:visible" />
      <rect
         id="rect3357"
         overflow="visible"
         ry="6.1869998"
         rx="3.536"
         y="773.33405"
         x="184.79747"
         height="6.8959999"
         width="33.797001"
         style="fill:#9f9eca;stroke:#000000;stroke-width:2;stroke-dashoffset:7.6;overflow:visible" />
      <path
         id="path3359"
         overflow="visible"
         d="m 206.24147,747.34307 2.718,0.062 h 5.524 c 0.914,-0.01 1.82,-0.03 2.718,-0.062 1.796,-0.063 3.556,-0.171 5.27,-0.33 3.427,-0.318 6.667,-0.839 9.625,-1.609 5.917,-1.542 10.708,-4.083 13.625,-8 v -107.992 c -5.833,-7.833 -19.167,-10.167 -34,-10 -14.833,-0.167 -28.167,2.167 -34,10 v 107.992 c 2.917,3.917 7.708,6.458 13.625,8 2.958,0.771 6.198,1.292 9.625,1.609 v 22.141 h 5.27 v -21.811 z"
         inkscape:connector-curvature="0"
         style="fill:#afafc3;stroke:#000000;stroke-width:2;stroke-dashoffset:7.6;overflow:visible" />
      <path
         id="path3361"
         overflow="visible"
         d="m 217.20247,613.34307 -2.718,0.062 h -5.524 c -0.914,-0.01 -1.82,-0.03 -2.718,-0.062 -1.796,-0.063 -3.556,-0.171 -5.27,-0.33 -3.427,-0.318 -6.667,-0.839 -9.625,-1.609 -5.917,-1.542 -12.708,-4.083 -15.625,-8 l 7,-121.992 c 5.833,-7.833 14.167,-10.167 29,-10 14.833,-0.167 23.167,2.167 29,10 l 7,121.992 c -2.917,3.917 -9.708,6.458 -15.625,8 -2.958,0.771 -6.198,1.292 -9.625,1.609 v 156.141 h -5.27 v -155.811 z"
         inkscape:connector-curvature="0"
         style="fill:#9f9eca;stroke:#000000;stroke-width:2;stroke-dashoffset:7.6;overflow:visible" />
      <path
         id="path3363"
         overflow="visible"
         d="m 217.57947,857.24507 9.447,6.886 0.456,0.324 8.796,8.282 0.398,0.393 c 0.9,1.102 2.141,3.165 1.751,3.559 0.008,2.493 -0.818,8.962 -0.818,8.962 l -0.383,2.543 c -0.558,2.287 -1.191,3.023 -1.729,2.892 l -3.443,-0.84 c -0.538,-0.131 -0.522,-2.079 0.036,-4.366 l 0.133,-0.543 1.117,-7.581 -0.959,-1.076 -8.11,-7.706 -0.456,-0.324 -11.041,-8.585"
         inkscape:connector-curvature="0"
         style="fill:#afafaf;stroke:#000000;stroke-width:2;stroke-dashoffset:7.6;overflow:visible" />
      <path
         id="path3365"
         d="m 232.06747,404.04407 h -40.678 c 10.127,-51.381 20.345,-89.641 20.345,-89.641 0,0 10.213,38.26 20.333,89.641 z"
         inkscape:connector-curvature="0"
         style="fill:#a14628;fill-rule:evenodd" />
      <path
         id="path3367"
         overflow="visible"
         d="m 187.33947,848.01807 -1.147,-12.659 v -0.559 c 0,-2.354 -1.153,-4.25 -1.707,-4.25 h -2.837 l 0.157,17.798 0.033,0.558 1.969,28.18 0.089,0.552 1.916,9.417 0.162,0.535 c 0.681,2.254 1.656,3.94 2.186,3.779 l 3.393,-1.025 c 0.53,-0.16 0.409,-2.104 -0.272,-4.358 l -0.162,-0.535 -1.75,-8.692 -0.089,-0.552 -1.909,-27.631 -0.033,-0.558 z"
         inkscape:connector-curvature="0"
         style="fill:#afafaf;stroke:#000000;stroke-width:2;stroke-dashoffset:7.6;overflow:visible" />
      <rect
         id="rect3369"
         overflow="visible"
         ry="4.25"
         rx="1"
         y="795.57104"
         x="180.03746"
         height="37.701"
         width="12.069"
         style="fill:#afafaf;stroke:#000000;stroke-width:2;stroke-dashoffset:7.6;overflow:visible" />
      <path
         id="path3371"
         overflow="visible"
         d="m 202.55747,803.19807 6.375,-2.625 1.421,3.33 -6.433,2.517 -9.53,3.131 c -4.47,1.244 1.59,10.702 1.067,10.884 l -3.224,1.411 c 0,0 -6.968,-12.272 -0.681,-14.795 l 11.005,-3.852 z"
         inkscape:connector-curvature="0"
         style="fill:#afafaf;stroke:#000000;stroke-width:2;stroke-dashoffset:7.6;overflow:visible" />
      <path
         id="path3373"
         overflow="visible"
         d="m 229.83447,917.98907 h -36.114 l 8.72,-50.791 c -10.723,-9.527 -18.83,-18.619 -17.22,-27.209 0.955,-5.097 2.819,-15.18 17.319,-20.304 0,0 4.619,-1 9.239,-1 4.619,0 9.239,1 9.239,1 14.5,5.124 16.363,15.207 17.319,20.304 1.61,8.589 -6.497,17.682 -17.22,27.209 l 8.72,50.791 z"
         inkscape:connector-curvature="0"
         style="fill:#474747;stroke:#000000;stroke-width:2;stroke-dashoffset:7.6;overflow:visible" />
      <rect
         id="rect3375"
         overflow="visible"
         rx="4.25"
         ry="4.25"
         y="896.65308"
         x="191.27747"
         height="8.5"
         width="41"
         style="fill:#474747;stroke:#000000;stroke-width:2;stroke-dashoffset:7.6;overflow:visible" />
      <rect
         id="rect3377"
         overflow="visible"
         rx="4.25"
         ry="4.25"
         y="846.36707"
         x="183.65547"
         height="7.073"
         width="56.243"
         style="fill:#474747;stroke:#000000;stroke-width:2;stroke-dashoffset:7.6;overflow:visible" />
      <rect
         id="rect3379"
         overflow="visible"
         rx="3.543"
         ry="4.25"
         y="830.77203"
         x="183.18646"
         height="5.2620001"
         width="57.181999"
         style="fill:#474747;stroke:#000000;stroke-width:2;stroke-dashoffset:7.6;overflow:visible" />
      <rect
         id="rect3381"
         overflow="visible"
         rx="4.25"
         ry="4.25"
         y="867.77203"
         x="199.40446"
         height="5.2620001"
         width="24.746"
         style="fill:#474747;stroke:#000000;stroke-width:2;stroke-dashoffset:7.6;overflow:visible" />
      <rect
         id="rect3383"
         overflow="visible"
         rx="3.1889999"
         ry="4.25"
         y="881.02203"
         x="195.70346"
         height="5.2620001"
         width="32.147999"
         style="fill:#474747;stroke:#000000;stroke-width:2;stroke-dashoffset:7.6;overflow:visible" />
      <path
         id="path3385"
         d="M 202.17447,822.90307 z"
         inkscape:connector-curvature="0"
         style="fill:none;stroke:#000000" />
      <path
         id="path3387"
         overflow="visible"
         d="m 193.42147,815.90307 -2.711,0.977 c -0.912,0.329 -1.432,2.663 -0.581,5.024 0.851,2.361 2.27,3.997 3.182,3.668 l 3.651,-1.316 c 0.912,-0.329 0.961,-2.494 0.111,-4.855 -0.851,-2.361 -2.74,-3.827 -3.652,-3.499 z"
         inkscape:connector-curvature="0"
         style="fill:#474747;stroke:#000000;stroke-width:2;stroke-dashoffset:7.6;overflow:visible" />
      <path
         id="path3389"
         overflow="visible"
         d="m 210.68247,803.19807 6.375,-2.625 1.421,3.33 -6.433,2.517 -9.53,3.131 c -4.47,1.244 1.59,10.702 1.067,10.884 l -3.224,1.411 c 0,0 -6.968,-12.272 -0.681,-14.795 l 11.005,-3.852 z"
         inkscape:connector-curvature="0"
         style="fill:#afafaf;stroke:#000000;stroke-width:2;stroke-dashoffset:7.6;overflow:visible" />
      <path
         id="path3391"
         overflow="visible"
         d="m 213.50647,819.72207 -3.62,0.045 0.196,-14.231 3.515,0.06 -0.09,14.125 z"
         inkscape:connector-curvature="0"
         style="fill:#afafaf;stroke:#000000;stroke-width:2;stroke-dashoffset:7.6;overflow:visible" />
      <path
         id="path3393"
         overflow="visible"
         d="m 223.59747,765.29907 -1.352,6.991 c 0.989,0.669 1.911,1.43 2.752,2.271 3.366,3.366 5.448,8.015 5.448,13.147 0,10.265 -8.331,18.595 -18.595,18.595 h -25.573 c 0,0 -4,-0.235 -4,-3.974 0,-3.737 4,-3.974 4,-3.974 l 10.155,-0.253 c -0.669,-0.989 -1.244,-2.046 -1.715,-3.159 -0.941,-2.224 -1.462,-4.67 -1.462,-7.236 0,-5.132 2.083,-9.781 5.448,-13.147 0.841,-0.841 1.763,-1.603 2.752,-2.271 l -1.352,-6.991 h -1.294 c -0.554,0 -1,-0.986 -1,-2.21 0,-1.224 0.446,-2.21 1,-2.21 h 10.081 c 0.554,0 1,0.986 1,2.21 0,1.224 -0.446,2.21 -1,2.21 h -1.295 l 0.508,4.192 c 0,0 3.694,-1.088 7.492,0 l 0.508,-4.192 h -1.294 c -0.554,0 -1,-0.986 -1,-2.21 0,-1.224 0.446,-2.21 1,-2.21 h 10.081 c 0.554,0 1,0.986 1,2.21 0,1.224 -0.446,2.21 -1,2.21 h -1.295 z"
         inkscape:connector-curvature="0"
         style="opacity:0.98999999;fill:#8a8a8a;stroke:#000000;stroke-width:2;stroke-dashoffset:7.6;overflow:visible" />
      <path
         id="path3395"
         overflow="visible"
         d="m 201.67147,815.90307 -2.711,0.977 c -0.912,0.329 -1.432,2.663 -0.581,5.024 0.851,2.361 2.27,3.997 3.182,3.668 l 3.651,-1.316 c 0.912,-0.329 0.961,-2.494 0.111,-4.855 -0.851,-2.361 -2.74,-3.827 -3.652,-3.499 z"
         inkscape:connector-curvature="0"
         style="fill:#474747;stroke:#000000;stroke-width:2;stroke-dashoffset:7.6;overflow:visible" />
      <path
         id="path3397"
         overflow="visible"
         d="m 210.14647,816.18707 2.879,-0.12 c 0.969,-0.04 2.332,1.925 2.437,4.432 0.105,2.507 -0.591,4.558 -1.56,4.599 l -3.878,0.162 c -0.969,0.04 -1.833,-1.945 -1.937,-4.453 -0.105,-2.507 1.09,-4.579 2.059,-4.62 z"
         inkscape:connector-curvature="0"
         style="fill:#474747;stroke:#000000;stroke-width:2;stroke-dashoffset:7.6;overflow:visible" />
      <path
         id="path3399"
         overflow="visible"
         d="m 230.13247,815.90307 2.711,0.977 c 0.912,0.329 1.432,2.663 0.581,5.024 -0.851,2.361 -2.27,3.997 -3.182,3.668 l -3.651,-1.316 c -0.912,-0.329 -0.961,-2.494 -0.111,-4.855 0.851,-2.361 2.74,-3.827 3.652,-3.499 z"
         inkscape:connector-curvature="0"
         style="fill:#474747;stroke:#000000;stroke-width:2;stroke-dashoffset:7.6;overflow:visible" />
      <path
         id="path3401"
         overflow="visible"
         d="m 221.88247,815.90307 2.711,0.977 c 0.912,0.329 1.432,2.663 0.581,5.024 -0.851,2.361 -2.27,3.997 -3.182,3.668 l -3.651,-1.316 c -0.912,-0.329 -0.961,-2.494 -0.111,-4.855 0.851,-2.361 2.74,-3.827 3.652,-3.499 z"
         inkscape:connector-curvature="0"
         style="fill:#474747;stroke:#000000;stroke-width:2;stroke-dashoffset:7.6;overflow:visible" />
      <path
         id="path3403"
         d="M 142.17447,822.90307 z"
         inkscape:connector-curvature="0"
         style="fill:none;stroke:#000000" />
      <path
         id="path3405"
         overflow="visible"
         d="m 186.72747,856.84107 c 1.141,0.717 2.357,1.615 3.819,3.461 l 8.31,5.862 0.52,0.207 8.259,4.961 3.23,2.538 c 1.136,0.857 2.83,4.318 2.545,4.793 0.599,2.42 1.067,6.872 1.067,6.872 v 0.559 c 0,2.355 -0.446,4.25 -1,4.25 h -3.544 c -0.554,0 -1,-1.895 -1,-4.25 v -0.559 l -0.212,-4.13 -0.937,-3.818 -10.455,-6.064 -0.52,-0.207 -10.262,-7.134"
         inkscape:connector-curvature="0"
         style="fill:#afafaf;stroke:#000000;stroke-width:2;stroke-dashoffset:7.6;overflow:visible" />
      <rect
         id="rect3407"
         overflow="visible"
         ry="4.25"
         rx="1"
         y="890.12305"
         x="209.00447"
         height="9.059"
         width="5.5440001"
         style="fill:#474747;stroke:#000000;stroke-width:2;stroke-dashoffset:7.6;overflow:visible" />
      <rect
         id="rect3409"
         overflow="visible"
         transform="matrix(-0.92084301,-0.38993352,-0.38993352,0.92084301,0,0)"
         ry="4.2507248"
         rx="1.0001705"
         y="728.76367"
         x="-565.36627"
         height="9.060544"
         width="5.5449452"
         style="fill:#474747;stroke:#000000;stroke-width:2.00034094;stroke-dashoffset:7.6;overflow:visible" />
      <rect
         id="rect3411"
         overflow="visible"
         transform="matrix(0.92064119,-0.39040979,0.39040979,0.92064119,0,0)"
         ry="4.25"
         rx="1"
         y="893.98889"
         x="-175.49773"
         height="9.059"
         width="5.5440001"
         style="fill:#474747;stroke:#000000;stroke-width:2;stroke-dashoffset:7.6;overflow:visible" />
      <path
         id="path3413"
         d="m 232.06747,408.04407 v -4 h -40.678 v 4 h 40.678 z"
         inkscape:connector-curvature="0"
         style="fill:#afafaf;fill-rule:evenodd" />
      <path
         id="path3415"
         d="m 242.81747,468.54407 -0.75,-4 h -60.678 l -0.75,4 h 62.178 z"
         inkscape:connector-curvature="0"
         style="fill:#afafaf;fill-rule:evenodd" />
      <path
         id="path3417"
         d="m 232.06747,408.04407 h -40.678"
         inkscape:connector-curvature="0"
         style="fill:#bd4e28;fill-rule:evenodd;stroke:#000000;stroke-width:2" />
      <path
         id="path3419"
         d="m 232.06747,404.04407 h -18.455 l 0.116,-81.687 -2,-8 -2,8 -0.358,81.688 h -17.981"
         inkscape:connector-curvature="0"
         style="fill:#afafaf;fill-rule:evenodd;stroke:#000000;stroke-width:2" />
      <path
         id="path3421"
         overflow="visible"
         d="m 230.86947,461.22007 h -38.184 v -50.014 h 38.184 v 50.014 z"
         inkscape:connector-curvature="0"
         style="fill:#cacaca;stroke:#000000;stroke-width:2;stroke-linejoin:round;stroke-dashoffset:7.6;overflow:visible" />
      <path
         id="path3423"
         overflow="visible"
         d="M 223.15147,426.76579"
         inkscape:connector-curvature="0"
         style="fill:#3b3b4c;stroke:#000000;stroke-width:1.99861193;stroke-dashoffset:7.6;overflow:visible" />
      <path
         id="path3425"
         overflow="visible"
         d="m 224.15147,457.25107 h -24.749 v -14.577 h 24.749 v 14.577 z"
         inkscape:connector-curvature="0"
         style="fill:#7c7c7c;stroke:#000000;stroke-width:2;stroke-linejoin:round;stroke-dashoffset:7.6;overflow:visible" />
      <path
         id="path3427"
         d="m 181.63847,464.54407 h 60.428 m 0.5,4 h -62.178"
         inkscape:connector-curvature="0"
         style="fill:#bd4e28;fill-rule:evenodd;stroke:#000000;stroke-width:2" />
      <path
         id="path3429"
         d="m 236.76447,912.40307 v 8.75 h -49.975 v -8.75 c -7,-34 -13,-148 -13,-148 l -2,-184 c -3,-105 40,-266 40,-266 0,0 42.975,161 39.975,266 l -2,184 c 0,0 -6,114 -13,148 z"
         inkscape:connector-curvature="0"
         style="fill:none;stroke:#000000;stroke-width:2" />
      <path
         id="path3431"
         overflow="visible"
         d="M 219.28297,426.8474"
         inkscape:connector-curvature="0"
         style="fill:#3b3b4c;stroke:#000000;stroke-width:1.99918413;stroke-dashoffset:7.6;overflow:visible" />
      <rect
         id="rect3433"
         overflow="visible"
         rx="1.775"
         ry="4.25"
         y="917.31506"
         x="191.37646"
         height="6.7989998"
         width="40.801998"
         style="fill:#474747;stroke:#000000;stroke-width:2;stroke-dashoffset:7.6;overflow:visible" />
      <path
         id="path3537"
         overflow="visible"
         d="m 209.07047,769.28607 c -3.338,0.496 -6.388,1.88 -8.901,3.903"
         inkscape:connector-curvature="0"
         style="opacity:0.98999999;fill:#8a8a8a;stroke:#000000;stroke-width:2;stroke-dashoffset:7.6;overflow:visible" />
      <g
         id="g3539"
         transform="translate(-52.278529,283.22207)">
        <g
           id="g3541"
           transform="translate(-106.047,-168.181)">
          <path
             id="path3543"
             overflow="visible"
             transform="matrix(0.499,0,0,0.499,186.609,341.266)"
             d="M 391,664.362"
             inkscape:connector-curvature="0"
             style="opacity:0.98999999;fill:#afafaf;overflow:visible" />
          <g
             id="g3545"
             style="fill:#afafaf;stroke:#5f5f5f;stroke-width:2;stroke-dashoffset:7.6">
            <path
               id="path3547"
               overflow="visible"
               d="m 370.177,661.195 v 22.946"
               inkscape:connector-curvature="0"
               style="opacity:0.98999999;overflow:visible" />
            <path
               id="path3549"
               overflow="visible"
               d="M 358.704,672.668 H 381.65"
               inkscape:connector-curvature="0"
               style="opacity:0.98999999;overflow:visible" />
            <path
               id="path3551"
               overflow="visible"
               d="m 362.064,664.555 16.225,16.225"
               inkscape:connector-curvature="0"
               style="opacity:0.98999999;overflow:visible" />
            <path
               id="path3553"
               overflow="visible"
               d="M 378.29,664.555 362.065,680.78"
               inkscape:connector-curvature="0"
               style="opacity:0.98999999;overflow:visible" />
          </g>
          <path
             id="path3555"
             overflow="visible"
             transform="matrix(0.15,0,0,0.15,314.861,572.804)"
             d="M 391,664.362"
             inkscape:connector-curvature="0"
             style="opacity:0.98999999;fill:#8b8a8b;stroke:#000000;stroke-width:13.30500031;stroke-dashoffset:7.6;overflow:visible" />
          <path
             id="path3557"
             overflow="visible"
             transform="matrix(0.499,0,0,0.499,186.609,341.266)"
             d="M 391,664.362"
             inkscape:connector-curvature="0"
             style="opacity:0.98999999;fill:none;stroke:#000000;stroke-width:4.00899982;stroke-dashoffset:7.6;overflow:visible" />
        </g>
        <path
           id="path3559"
           overflow="visible"
           d="M 391,664.362"
           transform="matrix(0.084,0,0,0.084,221.973,448.914)"
           inkscape:connector-curvature="0"
           style="opacity:0.98999999;fill:#8b8a8b;stroke:#000000;stroke-width:14.34599972;stroke-dashoffset:7.6;overflow:visible" />
        <path
           id="path3561"
           overflow="visible"
           d="M 391,664.362"
           transform="matrix(-0.084,0,0,0.084,306.236,448.914)"
           inkscape:connector-curvature="0"
           style="opacity:0.98999999;fill:#8b8a8b;stroke:#000000;stroke-width:14.34599972;stroke-dashoffset:7.6;overflow:visible" />
        <path
           id="path3563"
           overflow="visible"
           d="M 391,664.362"
           transform="matrix(0,-0.084,0.084,0,208.532,546.619)"
           inkscape:connector-curvature="0"
           style="opacity:0.98999999;fill:#8b8a8b;stroke:#000000;stroke-width:14.34599972;stroke-dashoffset:7.6;overflow:visible" />
        <path
           id="path3565"
           overflow="visible"
           d="M 391,664.362"
           transform="matrix(0,0.084,0.084,0,208.532,462.355)"
           inkscape:connector-curvature="0"
           style="opacity:0.98999999;fill:#8b8a8b;stroke:#000000;stroke-width:14.34599972;stroke-dashoffset:7.6;overflow:visible" />
      </g>
      <path
         id="path3567"
         overflow="visible"
         d="M 205.00483,794.33343"
         inkscape:connector-curvature="0"
         style="opacity:0.98999999;fill:#8b8a8b;stroke:#000000;stroke-width:1.19701016;stroke-dashoffset:7.6;overflow:visible" />
      <path
         id="path3569"
         overflow="visible"
         d="M 218.45083,780.88743"
         inkscape:connector-curvature="0"
         style="opacity:0.98999999;fill:#8b8a8b;stroke:#000000;stroke-width:1.19701016;stroke-dashoffset:7.6;overflow:visible" />
      <path
         id="path3571"
         overflow="visible"
         d="M 218.45083,794.52971"
         inkscape:connector-curvature="0"
         style="opacity:0.98999999;fill:#8b8a8b;stroke:#000000;stroke-width:1.19701016;stroke-dashoffset:7.6;overflow:visible" />
      <path
         id="path3573"
         overflow="visible"
         d="M 205.00483,781.08371"
         inkscape:connector-curvature="0"
         style="opacity:0.98999999;fill:#8b8a8b;stroke:#000000;stroke-width:1.19701016;stroke-dashoffset:7.6;overflow:visible" />
    </g>
    <text
       style="font-size:40px;font-family:Bitstream Vera Sans"
       x="386.87247"
       y="357.30307"
       font-size="40"
       id="text3575" />
    <text
       style="font-size:40px"
       x="53.118469"
       y="356.59506"
       font-size="40"
       id="text3581" />
  </g>
</svg>
